<svg width="281" height="207" viewBox="0 0 281 207" fill="none" xmlns="http://www.w3.org/2000/svg">
<path d="M78.4812 153.568C76.8227 153.294 75.119 153.969 73.8127 155.028C72.5063 156.088 71.5401 157.493 70.6371 158.908C69.0134 161.438 67.5214 164.05 66.1673 166.734C65.5352 167.992 64.9241 169.287 64.7044 170.677C64.4275 172.453 64.8037 174.259 65.177 176.017C65.2823 176.508 65.4057 177.034 65.779 177.362C66.0381 177.557 66.3357 177.693 66.6519 177.763C71.0369 179.03 75.6432 179.338 80.1578 178.666" fill="black"/>
<path d="M78.5444 153.337C75.703 152.84 73.2438 154.733 71.6214 156.861C70.7211 158.087 69.8872 159.36 69.1231 160.675C68.3044 162.019 67.5248 163.389 66.7843 164.784C66.0198 166.124 65.3528 167.519 64.7887 168.955C64.2788 170.418 64.127 171.982 64.3462 173.516C64.4455 174.298 64.596 175.075 64.7586 175.848C64.891 176.486 65.0144 177.191 65.5231 177.654C66.0318 178.118 66.8174 178.235 67.4555 178.398C68.2101 178.599 68.9736 178.765 69.7462 178.897C73.2265 179.518 76.7845 179.569 80.2812 179.048C80.7718 178.976 80.5641 178.232 80.0765 178.305C75.7249 178.95 71.2863 178.672 67.0492 177.489C66.7511 177.427 66.4626 177.326 66.1913 177.188C65.9213 177 65.7346 176.716 65.6706 176.393C65.4854 175.699 65.3377 174.996 65.2281 174.286C64.9663 172.817 64.879 171.324 65.2823 169.871C65.6676 168.48 66.3599 167.192 67.0221 165.918C68.3427 163.352 69.7986 160.857 71.3836 158.445C72.9849 156.037 75.2755 153.403 78.4962 153.815C78.7611 153.848 78.8243 153.391 78.5594 153.343L78.5444 153.337Z" fill="black"/>
<path d="M234.541 202.111C245.157 202.111 253.763 193.505 253.763 182.889C253.763 172.273 245.157 163.667 234.541 163.667C223.925 163.667 215.319 172.273 215.319 182.889C215.319 193.505 223.925 202.111 234.541 202.111Z" fill="black"/>
<path d="M253.164 182.889C253.165 186.724 251.982 190.466 249.776 193.604C247.571 196.742 244.45 199.122 240.841 200.42C237.232 201.717 233.31 201.869 229.612 200.854C225.913 199.839 222.618 197.706 220.177 194.748C217.716 191.767 216.244 188.095 215.963 184.24C215.683 180.385 216.608 176.538 218.612 173.233C220.714 169.747 223.901 167.047 227.685 165.546C231.468 164.045 235.64 163.826 239.56 164.921C243.48 166.017 246.933 168.367 249.39 171.612C251.847 174.857 253.172 178.818 253.164 182.889C253.164 183.656 254.368 183.659 254.368 182.889C254.361 178.791 253.088 174.796 250.722 171.451C248.355 168.103 245.007 165.573 241.14 164.208C237.274 162.843 233.079 162.712 229.135 163.832C225.713 164.802 222.615 166.674 220.166 169.252C217.716 171.831 216.006 175.021 215.214 178.488C214.422 181.956 214.577 185.572 215.664 188.958C216.75 192.345 218.728 195.377 221.389 197.736C224.051 200.095 227.298 201.694 230.79 202.366C234.283 203.039 237.891 202.759 241.238 201.556C244.585 200.354 247.547 198.273 249.813 195.532C252.079 192.791 253.566 189.49 254.118 185.977C254.273 184.96 254.354 183.933 254.358 182.904C254.358 182.118 253.164 182.118 253.164 182.889V182.889Z" fill="black"/>
<path d="M234.541 190.272C238.618 190.272 241.924 186.967 241.924 182.889C241.924 178.811 238.618 175.505 234.541 175.505C230.463 175.505 227.157 178.811 227.157 182.889C227.157 186.967 230.463 190.272 234.541 190.272Z" fill="white"/>
<path d="M241.325 182.889C241.325 184.287 240.893 185.65 240.089 186.794C239.284 187.937 238.146 188.804 236.831 189.276C235.515 189.748 234.086 189.803 232.738 189.432C231.39 189.061 230.189 188.284 229.3 187.205C228.411 186.126 227.877 184.799 227.77 183.405C227.663 182.012 227.99 180.619 228.704 179.417C229.419 178.216 230.487 177.265 231.763 176.693C233.039 176.122 234.46 175.958 235.832 176.225C237.373 176.536 238.761 177.369 239.761 178.582C240.761 179.796 241.314 181.316 241.325 182.889C241.325 183.656 242.529 183.659 242.529 182.889C242.528 181.241 242.016 179.634 241.065 178.289C240.114 176.944 238.77 175.925 237.218 175.374C235.665 174.823 233.98 174.765 232.394 175.21C230.807 175.654 229.397 176.579 228.357 177.856C227.316 179.134 226.697 180.702 226.583 182.346C226.47 183.989 226.867 185.628 227.722 187.037C228.576 188.445 229.846 189.555 231.356 190.213C232.866 190.872 234.543 191.047 236.157 190.715C237.95 190.328 239.558 189.342 240.716 187.92C241.874 186.497 242.514 184.723 242.529 182.889C242.526 182.118 241.328 182.118 241.325 182.889Z" fill="white"/>
<path d="M231.317 160.991C233.143 167.384 235.265 173.683 237.683 179.888C238.002 180.71 238.333 181.552 238.357 182.434C238.466 186.407 232.539 188.313 230.799 184.484C230.149 183.051 229.547 181.596 228.993 180.12C228.521 178.84 227.651 177.2 227.81 175.803C227.891 175.371 228.039 174.955 228.25 174.569C229.353 172.193 229.9 169.597 229.851 166.978" fill="black"/>
<path d="M231.209 161.033C232.286 164.916 233.485 168.761 234.806 172.567C235.456 174.446 236.133 176.316 236.837 178.178C237.189 179.117 237.596 180.044 237.903 180.995C238.181 181.75 238.247 182.566 238.095 183.355C237.623 185.411 235.308 186.766 233.279 186.329C232.075 186.073 231.326 185.234 230.838 184.15C230.062 182.422 229.412 180.652 228.701 178.901C228.349 178.031 227.976 177.095 227.982 176.149C228.027 175.584 228.195 175.035 228.475 174.542C228.668 174.112 228.849 173.675 229.008 173.23C229.727 171.229 230.077 169.115 230.041 166.99C230.041 166.945 230.023 166.902 229.991 166.871C229.96 166.839 229.917 166.821 229.872 166.821C229.827 166.821 229.785 166.839 229.753 166.871C229.721 166.902 229.704 166.945 229.704 166.99C229.738 169.038 229.409 171.077 228.731 173.01C228.554 173.513 228.349 174.009 228.129 174.494C227.913 174.893 227.759 175.322 227.672 175.767C227.614 176.59 227.749 177.414 228.066 178.175C228.367 179.027 228.734 179.861 229.056 180.707C229.418 181.658 229.8 182.599 230.203 183.53C230.73 184.734 231.248 185.899 232.539 186.444C234.474 187.262 236.916 186.332 237.981 184.562C238.725 183.334 238.619 181.95 238.156 180.634C237.454 178.63 236.651 176.667 235.913 174.668C234.28 170.151 232.787 165.584 231.434 160.967C231.425 160.941 231.405 160.919 231.38 160.906C231.355 160.894 231.327 160.891 231.3 160.898C231.273 160.906 231.25 160.923 231.235 160.947C231.22 160.971 231.215 161 231.221 161.027L231.209 161.033Z" fill="black"/>
<path d="M207.613 181.841H257.579C257.579 181.841 262.473 144.773 222.735 139.289L210.726 163.814" fill="#FE9102"/>
<path d="M207.613 182.061C214.115 182.123 220.616 182.159 227.118 182.169C233.62 182.179 240.122 182.185 246.626 182.187H257.579C257.67 182.185 257.757 182.148 257.821 182.083C257.886 182.019 257.923 181.932 257.925 181.841C257.971 181.507 257.995 181.17 258.022 180.833C258.088 179.93 258.118 179.003 258.121 178.085C258.121 176.71 258.062 175.336 257.943 173.961C257.792 172.243 257.546 170.535 257.206 168.844C256.819 166.915 256.295 165.016 255.638 163.161C254.909 161.114 254.002 159.135 252.929 157.247C250.496 152.957 247.147 149.257 243.119 146.411C240.739 144.736 238.176 143.337 235.48 142.242C232.296 140.948 228.986 139.99 225.604 139.382C224.68 139.211 223.75 139.063 222.82 138.934C222.74 138.914 222.656 138.92 222.58 138.951C222.504 138.982 222.439 139.036 222.395 139.105L221.191 141.549L218.332 147.383L214.858 154.477C213.856 156.521 212.866 158.571 211.869 160.621C211.388 161.611 210.852 162.592 210.419 163.604L210.397 163.646C210.199 164.055 210.81 164.413 210.999 164.004C211.397 163.188 211.8 162.379 212.203 161.563L215.075 155.739C216.24 153.376 217.39 151.01 218.549 148.644L221.559 142.507L222.543 140.493C222.732 140.187 222.89 139.864 223.015 139.527C223.021 139.513 223.028 139.5 223.036 139.488L222.612 139.659C226.144 140.126 229.621 140.941 232.994 142.091C235.816 143.062 238.52 144.348 241.054 145.923C243.27 147.307 245.317 148.946 247.153 150.805C248.804 152.484 250.27 154.337 251.523 156.332C252.669 158.159 253.646 160.088 254.443 162.093C255.176 163.953 255.77 165.864 256.222 167.812C256.623 169.514 256.925 171.239 257.125 172.977C257.284 174.407 257.378 175.845 257.405 177.284C257.423 178.311 257.405 179.337 257.35 180.363C257.323 180.833 257.218 181.333 257.233 181.802C257.234 181.823 257.234 181.844 257.233 181.865L257.579 181.519L238.071 181.54C231.57 181.54 225.068 181.554 218.567 181.582C214.914 181.596 211.263 181.622 207.613 181.658C207.558 181.658 207.505 181.68 207.466 181.718C207.427 181.757 207.406 181.81 207.406 181.865C207.406 181.92 207.427 181.973 207.466 182.012C207.505 182.051 207.558 182.073 207.613 182.073V182.061Z" fill="#FE9102"/>
<path d="M210.9 163.667L207.788 181.694H221.333C223.93 181.694 226.427 180.696 228.309 178.907C230.191 177.117 231.313 174.673 231.443 172.08C231.883 163.282 232.428 152.28 232.702 141.378C229.513 140.331 226.234 139.581 222.907 139.138L210.9 163.667Z" fill="black"/>
<path d="M210.614 163.589L209.561 169.684L207.881 179.397L207.499 181.616C207.487 181.661 207.486 181.708 207.496 181.754C207.506 181.8 207.526 181.842 207.555 181.879C207.584 181.915 207.622 181.945 207.664 181.964C207.707 181.984 207.753 181.993 207.8 181.992H221.182C223.04 182.005 224.868 181.529 226.482 180.61C228.097 179.692 229.44 178.364 230.378 176.76C230.905 175.844 231.287 174.852 231.513 173.82C231.712 172.664 231.815 171.494 231.82 170.322C231.958 167.549 232.093 164.776 232.223 162.002C232.506 155.901 232.756 149.797 232.927 143.69C232.951 142.922 232.969 142.151 232.99 141.384C232.993 141.316 232.973 141.25 232.933 141.195C232.893 141.141 232.836 141.101 232.771 141.083C229.585 140.043 226.312 139.296 222.991 138.849C222.928 138.832 222.861 138.836 222.8 138.861C222.739 138.885 222.688 138.929 222.654 138.985L221.45 141.429L218.594 147.265L215.126 154.369L212.116 160.506C211.632 161.494 211.09 162.472 210.656 163.483L210.638 163.525C210.47 163.869 210.984 164.173 211.153 163.826L212.357 161.382L215.213 155.549L218.693 148.445L221.703 142.311L222.687 140.297L222.988 139.668C223.055 139.562 223.11 139.449 223.154 139.331C223.154 139.331 223.154 139.304 223.172 139.289L222.835 139.427C226.156 139.875 229.429 140.623 232.614 141.664L232.395 141.363C232.244 147.404 232.012 153.445 231.741 159.483C231.617 162.27 231.485 165.056 231.347 167.839L231.157 171.707C231.123 172.819 230.92 173.921 230.555 174.972C229.844 176.849 228.58 178.467 226.931 179.611C225.282 180.756 223.325 181.374 221.318 181.384C219.181 181.384 217.047 181.384 214.909 181.384H210.494C209.648 181.384 208.76 181.309 207.917 181.384H207.788L208.089 181.76L209.142 175.665L210.819 165.955L211.201 163.736C211.255 163.372 210.677 163.209 210.614 163.589V163.589Z" fill="black"/>
<path d="M98.1636 202.108C110.952 202.108 121.319 191.74 121.319 178.952C121.319 166.163 110.952 155.796 98.1636 155.796C85.3749 155.796 75.0076 166.163 75.0076 178.952C75.0076 191.74 85.3749 202.108 98.1636 202.108Z" fill="black"/>
<path d="M120.724 178.952C120.705 184.739 118.447 190.294 114.423 194.453C110.398 198.611 104.92 201.05 99.1364 201.258C93.353 201.466 87.7137 199.427 83.4011 195.568C79.0884 191.709 76.4374 186.33 76.0038 180.559C75.5702 174.788 77.3878 169.073 81.0755 164.613C84.7631 160.153 90.0344 157.294 95.7839 156.635C101.533 155.977 107.315 157.57 111.915 161.08C116.516 164.591 119.579 169.747 120.462 175.466C120.638 176.62 120.726 177.785 120.724 178.952C120.724 179.722 121.928 179.722 121.928 178.952C121.945 172.817 119.586 166.914 115.347 162.481C111.107 158.047 105.316 155.427 99.1865 155.169C93.0574 154.912 87.0667 157.037 82.4703 161.1C77.874 165.163 75.0291 170.847 74.532 176.962C74.0349 183.076 75.9242 189.145 79.8039 193.897C83.6836 198.649 89.2523 201.714 95.3425 202.451C101.433 203.187 107.571 201.536 112.471 197.846C117.372 194.155 120.653 188.711 121.627 182.654C121.819 181.429 121.919 180.192 121.928 178.952C121.922 178.184 120.727 178.181 120.724 178.952Z" fill="black"/>
<path d="M98.1636 187.846C103.076 187.846 107.058 183.864 107.058 178.952C107.058 174.039 103.076 170.057 98.1636 170.057C93.2512 170.057 89.269 174.039 89.269 178.952C89.269 183.864 93.2512 187.846 98.1636 187.846Z" fill="white"/>
<path d="M106.462 178.952C106.453 181.085 105.618 183.132 104.132 184.664C102.647 186.195 100.626 187.092 98.4942 187.167C96.362 187.241 94.2837 186.488 92.695 185.064C91.1063 183.639 90.1305 181.656 89.9721 179.528C89.8138 177.4 90.4852 175.294 91.8457 173.651C93.2061 172.007 95.1499 170.954 97.2697 170.712C99.3895 170.47 101.521 171.058 103.216 172.353C104.912 173.648 106.041 175.549 106.366 177.657C106.431 178.086 106.463 178.518 106.462 178.952C106.462 179.722 107.666 179.722 107.666 178.952C107.672 176.494 106.727 174.13 105.028 172.355C103.33 170.579 101.01 169.529 98.5547 169.426C96.0997 169.323 93.6999 170.173 91.8581 171.8C90.0164 173.427 88.8756 175.703 88.6748 178.152C88.474 180.601 89.2287 183.033 90.7809 184.938C92.333 186.842 94.5622 188.073 97.0013 188.371C99.4404 188.669 101.9 188.011 103.865 186.536C105.83 185.061 107.148 182.882 107.543 180.457C107.62 179.959 107.661 179.456 107.666 178.952C107.66 178.181 106.465 178.181 106.462 178.952Z" fill="white"/>
<path d="M119.766 81.1297H83.5139C82.1624 81.1297 81.0668 82.2253 81.0668 83.5768V116.232C81.0668 117.584 82.1624 118.679 83.5139 118.679H119.766C121.118 118.679 122.213 117.584 122.213 116.232V83.5768C122.213 82.2253 121.118 81.1297 119.766 81.1297Z" fill="white"/>
<path d="M155.263 141.125C153.659 135.522 152.603 129.776 152.112 123.968C151.811 120.239 151.754 116.302 153.478 112.978C152.235 112.551 150.884 112.677 149.565 112.744C143.817 113.074 138.051 112.513 132.475 111.079C132.675 112.226 132.537 113.406 132.078 114.475C131.618 115.544 130.856 116.456 129.886 117.099C128.432 118.029 126.662 118.264 124.998 118.713C121.834 119.564 118.954 121.22 116.115 122.857C113.779 124.206 111.399 125.587 109.596 127.592C108.392 128.925 107.489 130.506 106.155 131.713" fill="#FE9102"/>
<path d="M155.465 141.077C154.456 137.358 153.668 133.583 153.105 129.771C152.828 127.893 152.614 126.008 152.464 124.115C152.301 122.365 152.266 120.604 152.359 118.848C152.449 116.879 152.941 114.949 153.806 113.177C153.835 113.127 153.852 113.07 153.856 113.012C153.859 112.954 153.85 112.896 153.828 112.842C153.806 112.788 153.772 112.74 153.728 112.701C153.685 112.662 153.634 112.633 153.578 112.617C152.325 112.205 151.007 112.28 149.707 112.355C148.337 112.434 146.962 112.467 145.589 112.446C142.799 112.403 140.016 112.151 137.263 111.693C135.688 111.428 134.129 111.098 132.586 110.703C132.518 110.686 132.447 110.686 132.379 110.705C132.312 110.723 132.25 110.759 132.201 110.809C132.151 110.858 132.116 110.92 132.097 110.987C132.079 111.055 132.078 111.126 132.095 111.194C132.256 112.164 132.16 113.159 131.816 114.08C131.473 115.001 130.893 115.816 130.136 116.443C129.251 117.165 128.137 117.527 127.045 117.81C125.889 118.111 124.727 118.345 123.595 118.734C121.277 119.528 119.11 120.693 116.988 121.906C114.965 123.059 112.91 124.194 111.092 125.657C110.096 126.464 109.2 127.387 108.422 128.405C107.615 129.446 106.856 130.545 105.908 131.469C105.58 131.791 106.071 132.27 106.411 131.969C107.275 131.157 108.054 130.261 108.738 129.293C109.439 128.34 110.236 127.462 111.116 126.671C112.922 125.088 115.074 123.92 117.136 122.728C119.354 121.458 121.614 120.215 124.059 119.417C126.268 118.694 128.781 118.553 130.65 117.042C131.522 116.317 132.185 115.373 132.573 114.307C132.961 113.242 133.059 112.093 132.857 110.977L132.369 111.467C137.752 112.848 143.31 113.423 148.861 113.174C150.366 113.105 151.925 112.873 153.376 113.352L153.15 112.792C151.516 116.004 151.432 119.67 151.702 123.188C152.005 127.079 152.573 130.945 153.403 134.759C153.869 136.926 154.422 139.069 155.065 141.188C155.079 141.241 155.115 141.286 155.163 141.313C155.211 141.341 155.267 141.347 155.32 141.333C155.374 141.318 155.419 141.283 155.446 141.235C155.473 141.187 155.48 141.13 155.465 141.077V141.077Z" fill="#FE9102"/>
<path d="M204.392 181.841H72.5545C72.1182 181.84 71.6868 181.75 71.2865 181.576C70.8862 181.403 70.5254 181.15 70.2261 180.832C69.9267 180.515 69.6951 180.14 69.5453 179.73C69.3956 179.321 69.3308 178.885 69.3549 178.449C69.8786 169.461 72.997 144.863 91.2345 131.553C113.828 115.067 151.48 115.067 155.143 129.723C158.035 141.291 157.123 161.56 156.612 169.585C156.584 170.022 156.646 170.46 156.794 170.872C156.942 171.285 157.173 171.662 157.473 171.982C157.773 172.301 158.135 172.555 158.538 172.729C158.94 172.903 159.373 172.992 159.811 172.992H204.392V179.171" fill="#FE9102"/>
<path d="M204.392 181.616H200.603L190.369 181.579C185.342 181.564 180.312 181.579 175.283 181.558C169.213 181.558 163.142 181.551 157.072 181.537H137.324H117.668H99.7378H85.1212H75.5314C73.62 181.537 70.911 181.986 69.9448 179.858C69.4151 178.693 69.7883 177.013 69.9057 175.77C70.0381 174.365 70.2057 172.961 70.4084 171.556C70.9153 168.053 71.6473 164.587 72.5996 161.178C74.9444 152.828 78.74 144.743 84.5222 138.211C90.768 131.138 99.196 126.412 107.991 123.366C116.254 120.506 125.127 118.989 133.877 119.366C137.513 119.47 141.119 120.055 144.602 121.105C147.335 121.972 150.059 123.249 152.127 125.289C153.026 126.161 153.755 127.192 154.279 128.329C154.959 129.834 155.212 131.586 155.483 133.218C156.284 137.892 156.57 142.654 156.705 147.392C156.837 152.066 156.789 156.744 156.627 161.418C156.561 163.301 156.476 165.182 156.374 167.062C156.284 168.718 155.88 170.569 156.976 171.984C158.072 173.398 159.685 173.368 161.277 173.368H185.854C191.194 173.368 196.533 173.368 201.873 173.368H204.386L204.016 172.995V179.183C204.016 179.278 204.054 179.37 204.121 179.437C204.188 179.504 204.279 179.542 204.374 179.542C204.469 179.542 204.561 179.504 204.628 179.437C204.695 179.37 204.733 179.278 204.733 179.183C204.733 177.122 204.733 175.06 204.733 172.995C204.731 172.897 204.692 172.804 204.622 172.735C204.553 172.666 204.46 172.626 204.362 172.625L194.655 172.61C188.202 172.61 181.748 172.61 175.295 172.61H160.985C160.612 172.61 160.242 172.61 159.872 172.61C157.969 172.57 156.904 171.065 157.015 169.262C157.25 165.506 157.408 161.747 157.491 157.984C157.593 153.129 157.572 148.268 157.304 143.419C157.057 138.904 156.648 134.337 155.585 129.931C154.21 124.23 148.572 121.346 143.323 119.965C135.602 117.933 127.255 118.291 119.453 119.664C110.423 121.238 101.523 124.413 93.784 129.374C89.8143 131.89 86.2508 134.996 83.2159 138.585C80.3586 142.024 77.9466 145.811 76.0371 149.854C72.7261 156.777 70.7063 164.302 69.6559 171.872C69.4672 173.251 69.3087 174.634 69.1803 176.023C69.0689 177.296 68.7709 178.795 69.2796 180.005C69.9328 181.561 71.4197 182.187 72.997 182.187H91.2978H107.787H126.858H146.962C153.427 182.187 159.893 182.182 166.358 182.172L183.31 182.148C187.629 182.148 191.943 182.138 196.253 182.118L203.459 182.097H204.383C204.439 182.091 204.491 182.064 204.528 182.022C204.565 181.98 204.586 181.926 204.586 181.87C204.586 181.814 204.565 181.76 204.528 181.718C204.491 181.676 204.439 181.649 204.383 181.643L204.392 181.616Z" fill="#FE9102"/>
<path d="M211.869 89.654C213.51 86.5627 213.124 82.7792 212.131 79.42C211.138 76.0608 209.585 72.8672 208.965 69.4208C208.345 65.9743 208.85 62.0493 211.403 59.6563C213.209 57.9557 215.74 57.2965 218.151 56.6975C223.027 55.4935 227.934 54.2895 232.942 53.8892C233.77 53.823 234.712 53.823 235.29 54.4189C235.639 54.8494 235.853 55.3727 235.907 55.9239C236.612 59.7256 236.642 63.6235 236.395 67.4793C236.202 70.5224 235.528 74.0321 232.831 75.4558C230.194 76.8495 226.11 75.9675 224.791 78.6404C224.436 79.3598 224.4 80.1845 224.37 80.9852L224.153 86.8728" fill="#FE9102"/>
<path d="M212.071 89.7654C213.543 86.9781 213.447 83.7123 212.76 80.7113C211.996 77.3762 210.485 74.2729 209.642 70.9589C208.929 68.1596 208.739 65.0262 209.943 62.3292C210.524 61.0147 211.472 59.8954 212.673 59.1055C213.967 58.2597 215.451 57.7781 216.935 57.3808C220.382 56.4567 223.879 55.626 227.389 54.9939C229.181 54.6611 230.99 54.42 232.807 54.2715C233.472 54.2173 234.291 54.13 234.869 54.5363C235.525 54.9969 235.57 56.0413 235.687 56.7577C236.289 60.3697 236.289 64.06 236.025 67.696C235.85 70.1341 235.402 73.1141 233.34 74.7184C231.428 76.2053 228.78 75.8261 226.612 76.6719C226.085 76.8527 225.605 77.1489 225.206 77.539C224.808 77.929 224.502 78.403 224.31 78.9264C224.033 79.727 224.042 80.6029 224.009 81.4367L223.906 84.1608L223.81 86.8848C223.792 87.3363 224.496 87.3363 224.511 86.8848C224.584 84.9704 224.655 83.0561 224.725 81.1417C224.758 80.308 224.764 79.42 225.189 78.6705C225.453 78.2116 225.841 77.8362 226.308 77.5869C227.332 77.021 228.563 76.8916 229.701 76.708C230.905 76.5153 232.136 76.3016 233.201 75.6816C235.552 74.318 236.332 71.4676 236.639 68.9512C237.005 65.3958 237.005 61.8121 236.639 58.2567C236.533 57.3718 236.416 56.4778 236.232 55.6049C236.085 54.9066 235.799 54.2263 235.158 53.85C234.517 53.4738 233.803 53.4738 233.123 53.5159C232.193 53.5761 231.263 53.6815 230.342 53.8019C226.651 54.2865 223.03 55.1323 219.421 56.0263C216.411 56.7698 213.022 57.4019 210.825 59.7737C208.886 61.8627 208.257 64.8606 208.435 67.6389C208.865 74.3271 214.009 80.3742 212.513 87.255C212.343 88.0513 212.067 88.8215 211.695 89.5456C211.568 89.7955 211.942 90.0152 212.071 89.7654V89.7654Z" fill="#FE9102"/>
<path d="M224.37 80.9972C224.354 80.2427 224.478 79.4918 224.734 78.7819C223.891 77.614 222.681 76.6929 221.273 76.4792C220.138 76.3107 218.985 76.6057 217.916 77.021C215.878 77.8305 214.015 79.0274 212.432 80.5457C213.182 83.6039 213.335 86.9029 211.869 89.657L224.153 86.8848L224.37 80.9972Z" fill="black"/>
<path d="M224.671 80.9972C224.665 80.3801 224.745 79.7653 224.909 79.1702C224.99 78.9143 225.089 78.7698 224.924 78.5381C224.773 78.3261 224.609 78.1249 224.43 77.9361C223.752 77.1777 222.882 76.617 221.911 76.3137C219.689 75.6605 217.218 76.8224 215.346 77.9481C214.224 78.6276 213.177 79.4236 212.222 80.323C212.182 80.3613 212.154 80.4096 212.14 80.4626C212.127 80.5157 212.128 80.5715 212.143 80.624C212.851 83.5467 213.046 86.7614 211.61 89.5065C211.581 89.5579 211.568 89.6167 211.572 89.6756C211.576 89.7345 211.598 89.7908 211.634 89.8377C211.67 89.8845 211.719 89.9197 211.774 89.939C211.83 89.9582 211.89 89.9607 211.948 89.946L222.732 87.5109L224.237 87.1738C224.303 87.1556 224.36 87.116 224.399 87.0614C224.439 87.0068 224.46 86.9403 224.457 86.8728C224.529 84.9102 224.603 82.9477 224.677 80.9852C224.677 80.5999 224.093 80.5999 224.075 80.9852C224.003 82.9477 223.929 84.9102 223.855 86.8728L224.075 86.5718L213.293 89.0069L211.788 89.344L212.125 89.7834C213.63 86.8908 213.468 83.5286 212.727 80.4524L212.649 80.7534C214.326 79.1382 216.328 77.8987 218.521 77.1174C219.641 76.7411 220.836 76.5635 221.977 76.9578C222.99 77.3491 223.863 78.036 224.481 78.9294L224.451 78.7006C224.193 79.4373 224.067 80.2137 224.078 80.9942C224.057 81.3795 224.656 81.3795 224.671 80.9972V80.9972Z" fill="black"/>
<path d="M134.001 118.676H85.2386C83.9526 118.676 82.7192 119.187 81.8098 120.097C80.9004 121.006 80.3895 122.239 80.3895 123.526C80.3896 124.542 80.7093 125.533 81.3035 126.358C81.8977 127.183 82.7363 127.8 83.7005 128.122L83.854 128.173C85.9249 128.865 87.9085 130.981 87.165 133.031C86.0905 136.008 79.932 142.63 80.5912 142.63" fill="#FE9102"/>
<path d="M134.001 118.451L131.511 118.427C129.347 118.409 127.18 118.381 125.016 118.372L116.061 118.342C112.742 118.342 109.421 118.342 106.098 118.342H96.7007H89.3292H85.4885C84.4958 118.318 83.5143 118.556 82.644 119.035C81.7003 119.588 80.9521 120.421 80.5034 121.419C80.0546 122.417 79.9275 123.53 80.1397 124.603C80.3723 125.738 80.9772 126.762 81.8584 127.514C82.2934 127.884 82.7854 128.18 83.3152 128.393C83.8245 128.568 84.3196 128.783 84.7962 129.034C85.7985 129.636 86.7858 130.626 86.9483 131.833C87.0657 132.697 86.6293 133.483 86.2048 134.202C85.2198 135.779 84.1297 137.287 82.942 138.717C82.4183 139.385 81.8855 140.05 81.3648 140.719C81.0009 141.16 80.6642 141.624 80.3564 142.106C80.1698 142.407 80.0554 142.952 80.5882 142.985C81.0457 143.012 81.0457 142.296 80.5882 142.269C80.7327 142.269 80.8711 142.486 80.8892 142.57C80.9434 142.756 80.847 142.597 80.8892 142.594C80.8892 142.594 80.8531 142.663 80.8892 142.594C80.9253 142.525 80.9283 142.519 80.9494 142.483C81.0668 142.29 81.2022 142.106 81.3377 141.923C81.7591 141.354 82.2046 140.803 82.644 140.249C83.8089 138.777 84.9828 137.308 86.0363 135.755C87.0085 134.322 88.1433 132.658 87.4149 130.873C86.9247 129.784 86.0903 128.886 85.04 128.317C84.5874 128.079 84.1163 127.878 83.6313 127.715C83.0831 127.51 82.5816 127.197 82.1564 126.794C81.4924 126.172 81.0334 125.363 80.8406 124.474C80.6477 123.584 80.7301 122.657 81.0767 121.816C81.4234 120.975 82.0179 120.259 82.7812 119.764C83.5445 119.269 84.4405 119.017 85.35 119.044H88.6038H95.4365H104.467H114.264C117.292 119.044 120.32 119.026 123.348 119.017C125.681 119.017 128.014 118.986 130.346 118.965L133.844 118.932H134.001C134.056 118.926 134.108 118.899 134.145 118.857C134.183 118.815 134.203 118.761 134.203 118.705C134.203 118.649 134.183 118.595 134.145 118.553C134.108 118.511 134.056 118.484 134.001 118.478V118.451Z" fill="#FE9102"/>
<path d="M155.91 80.0641C155.829 80.141 155.764 80.2332 155.718 80.3355C155.673 80.4377 155.648 80.548 155.645 80.6599C155.642 80.7718 155.661 80.8831 155.702 80.9875C155.742 81.0919 155.803 81.1873 155.88 81.2681C166.822 83.6491 180.791 87.1858 189.37 94.8131C201.837 105.908 192.28 125.976 186.041 137.697C181.315 146.576 176.34 155.315 171.117 163.914C170.702 164.597 170.268 165.352 170.376 166.144C170.563 167.505 174.572 169.049 174.675 170.418C174.777 171.857 173.248 172.525 172.092 172.826C170.557 173.23 166.641 172.673 165.058 172.79C162.587 172.974 159.968 172.507 159.619 169.621C159.258 166.611 160.618 163.733 161.07 160.825C161.416 158.595 161.756 156.368 162.144 154.146C163.116 148.625 164.378 143.158 165.925 137.769C166.945 134.181 168.059 130.62 169.236 127.08C170.593 122.966 171.683 119.516 175.686 112.957C169.57 113.069 156.302 110.513 148.331 108.509C142.564 107.07 136.52 105.119 132.791 100.49C129.2 96.0292 128.489 89.7804 129.585 84.1577C130.681 78.5351 131.836 75.9946 134.491 70.9137" fill="white"/>
<path d="M145.55 31.6724C138.427 40.0493 133.358 49.9739 130.747 60.6557C129.808 64.5205 130.389 62.8921 129.115 66.6576C128.61 68.1626 127.993 69.6676 128.053 71.2509C128.137 73.415 129.522 75.3685 131.286 76.6267C133.049 77.8849 135.165 78.5381 137.263 79.0738C142.144 80.3155 147.149 81.0021 152.184 81.1206C154.044 81.1658 156.097 81.0574 157.449 79.7812C159.032 78.2762 158.954 76.0518 159.33 74.0803C159.721 72.1822 160.277 70.322 160.991 68.5208C161.592 66.7974 162.035 65.0233 162.316 63.2202C163.008 59.3493 163.219 55.3611 162.584 51.4661C161.747 46.2408 159.324 41.1629 155.287 37.7405" fill="black"/>
<path d="M145.403 31.5128C139.938 37.8378 135.656 45.094 132.761 52.935C131.539 56.3388 130.548 59.8213 129.796 63.3586C129.499 64.5359 129.136 65.6955 128.709 66.8322C128.029 68.8127 127.336 70.8385 128.029 72.9154C129.359 76.9127 133.6 78.4959 137.321 79.435C141.887 80.5871 146.562 81.257 151.269 81.4337C153.117 81.5029 155.167 81.5992 156.838 80.6661C158.508 79.733 159.122 77.9571 159.393 76.1511C159.534 75.209 159.646 74.2669 159.86 73.3338C160.115 72.2361 160.43 71.153 160.802 70.089C161.187 68.9783 161.62 67.8917 161.927 66.7539C162.228 65.6703 162.436 64.5656 162.635 63.461C163.441 58.9731 163.634 54.3226 162.635 49.8437C161.825 46.0372 160.102 42.4846 157.614 39.4923C156.989 38.7644 156.309 38.0861 155.579 37.4636C155.182 37.1265 154.604 37.6984 155.001 38.0415C157.872 40.5353 160.015 43.7596 161.202 47.3725C162.59 51.4481 162.857 55.8005 162.421 60.0687C162.205 62.3157 161.802 64.5407 161.217 66.7208C160.645 68.8097 159.748 70.7903 159.239 72.9033C159.014 73.8545 158.878 74.8117 158.743 75.7749C158.656 76.6297 158.448 77.4678 158.126 78.2641C157.313 80.0701 155.54 80.6721 153.692 80.7895C151.545 80.8619 149.395 80.7683 147.263 80.5096C144.981 80.2861 142.712 79.9446 140.466 79.4862C138.349 79.1016 136.267 78.5439 134.241 77.8187C132.435 77.1324 130.732 76.1 129.594 74.5077C129.037 73.7563 128.653 72.8907 128.471 71.9733C128.319 70.9392 128.41 69.884 128.736 68.891C129.188 67.3108 129.826 65.7907 130.271 64.2135C130.545 63.2503 130.714 62.257 130.945 61.2847C131.415 59.3132 131.96 57.3717 132.595 55.4333C135.119 47.7786 138.912 40.6022 143.813 34.2038C144.427 33.4011 145.06 32.6135 145.713 31.8409C145.896 31.6242 145.583 31.3051 145.393 31.5249L145.403 31.5128Z" fill="black"/>
<path d="M165.356 13.5341C166.861 16.1739 165.503 19.8882 167.36 22.2872C167.556 22.4938 167.709 22.7373 167.809 23.0036C167.956 23.5604 167.544 23.9969 167.005 24.2949C165.979 24.8668 166.036 26.3417 165.904 27.353C165.765 28.4186 165.714 29.5082 165.509 30.5647C165.338 31.4677 164.958 32.3857 164.218 32.9366C163.608 33.3538 162.876 33.5571 162.138 33.5145C161.039 33.4904 159.998 33.075 158.899 33.0208C158.529 33.0028 158.114 32.9907 157.834 33.2376C157.662 33.4183 157.541 33.6417 157.485 33.8847C157.041 35.2091 156.617 36.5405 156.211 37.879C156.14 38.2371 155.964 38.5661 155.706 38.8241C155.345 39.1251 154.83 39.086 154.375 39.0228C152.644 38.7676 150.981 38.1708 149.482 37.267C147.984 36.3632 146.68 35.1705 145.646 33.7583C145.436 33.5212 145.315 33.2175 145.306 32.9004C145.375 32.5876 145.54 32.3043 145.779 32.0908C147.659 29.8817 148.974 27.2486 149.61 24.4183C150.658 19.9906 148.653 14.1843 152.061 10.485C152.878 9.60587 153.942 8.9942 155.113 8.73014C157.104 8.32324 159.171 8.51706 161.052 9.28699C162.707 9.94016 164.847 11.2194 165.121 13.1609" fill="white"/>
<path d="M165.157 13.6515C166.424 15.9933 165.527 18.8136 166.442 21.2517C166.537 21.5095 166.653 21.7591 166.789 21.9982C166.96 22.2992 167.204 22.546 167.391 22.838C167.845 23.6026 166.921 23.8704 166.488 24.2858C165.678 25.0413 165.717 26.2965 165.585 27.2958C165.488 28.1025 165.428 28.9122 165.32 29.7038C165.259 30.4284 165.065 31.1356 164.748 31.7898C163.92 33.2948 162.24 33.2737 160.754 32.9637C160.023 32.7692 159.27 32.6681 158.514 32.6627C158.217 32.6647 157.928 32.7645 157.693 32.9467C157.458 33.129 157.29 33.3835 157.214 33.671C156.934 34.4506 156.693 35.2513 156.443 36.0429C156.32 36.4312 156.196 36.8225 156.076 37.2138C155.993 37.5895 155.869 37.9549 155.706 38.3034C155.332 38.9566 154.375 38.6827 153.779 38.5653C153.087 38.4195 152.408 38.2181 151.748 37.9633C149.814 37.2284 148.086 36.0391 146.709 34.4957C146.492 34.2519 146.284 34.0021 146.089 33.7432C145.893 33.4844 145.541 33.0901 145.716 32.6928C145.918 32.3629 146.161 32.0596 146.438 31.7898C146.67 31.4888 146.889 31.2118 147.1 30.9138C147.516 30.322 147.893 29.7037 148.229 29.0627C149.519 26.6511 150.226 23.9708 150.294 21.2367C150.348 18.7143 150.041 16.1197 150.703 13.6455C151.011 12.4165 151.648 11.2947 152.545 10.4007C153.656 9.39561 155.09 8.82303 156.588 8.78733C158.152 8.71184 159.714 8.98961 161.157 9.60003C162.294 10.0366 163.316 10.7274 164.146 11.6197C164.535 12.0611 164.796 12.6002 164.901 13.1789C164.955 13.4799 165.41 13.3535 165.368 13.0495C164.992 10.3796 161.801 8.95589 159.483 8.43817C157.912 8.05602 156.269 8.07362 154.706 8.48935C153.344 8.89438 152.156 9.74166 151.329 10.8973C149.716 13.1067 149.635 15.9632 149.647 18.5909C149.647 19.9424 149.695 21.2999 149.574 22.6424C149.424 24.1075 149.065 25.5436 148.509 26.9075C147.926 28.4258 147.127 29.8522 146.137 31.1426C145.752 31.6423 145.038 32.1901 145.002 32.8673C144.966 33.5446 145.604 34.2008 146.017 34.6944C147.91 36.9191 150.471 38.4722 153.319 39.1221C153.966 39.2696 154.737 39.4683 155.399 39.2997C156.136 39.1101 156.38 38.4479 156.582 37.7947C156.834 36.9639 157.093 36.1362 157.358 35.3115L157.765 34.0743C157.915 33.6259 158.048 33.3279 158.571 33.3098C160.191 33.2526 161.699 34.1075 163.333 33.683C164.82 33.2948 165.591 31.9794 165.858 30.5496C166.141 29.0446 166.159 27.5065 166.394 26.0015C166.494 25.3995 166.695 24.8487 167.231 24.5146C167.767 24.1805 168.23 23.726 168.164 23.0728C168.113 22.7545 167.97 22.4582 167.752 22.221C167.514 21.9308 167.312 21.6136 167.15 21.2758C166.882 20.6666 166.71 20.02 166.638 19.3585C166.46 17.9859 166.515 16.5893 166.244 15.2257C166.12 14.581 165.895 13.9601 165.576 13.3866C165.431 13.1278 165.037 13.3565 165.178 13.6184L165.157 13.6515Z" fill="black"/>
<path d="M156.085 30.4383C156.546 30.9741 156.771 31.7085 157.069 32.3406C157.47 33.1954 158.216 34.267 159.221 34.4476C159.823 34.556 160.459 34.3121 161.045 34.2249C161.274 34.1917 161.632 34.1195 161.726 33.8817C161.414 33.749 161.093 33.6383 160.766 33.5506C159.775 33.2135 159.444 33.057 158.905 32.16C158.367 31.263 158.002 28.7858 157.765 27.7684" fill="black"/>
<path d="M155.925 30.5858C156.404 31.1878 156.588 31.9824 156.922 32.6747C157.208 33.2939 157.633 33.8395 158.162 34.27C158.432 34.4794 158.744 34.6274 159.076 34.7038C159.409 34.7803 159.754 34.7832 160.088 34.7125C160.48 34.6463 160.874 34.562 161.262 34.4777C161.406 34.4597 161.544 34.4095 161.666 34.3308C161.788 34.2521 161.891 34.147 161.967 34.0232C162.003 33.9556 162.013 33.8765 161.994 33.802C161.974 33.7276 161.927 33.6634 161.861 33.6229C161.217 33.3219 160.459 33.2496 159.857 32.8463C159.397 32.4904 159.06 31.9985 158.896 31.4406C158.475 30.2185 158.397 28.9182 158.02 27.6901C158.001 27.6191 157.955 27.5586 157.891 27.5219C157.827 27.4852 157.751 27.4753 157.68 27.4945C157.609 27.5137 157.549 27.5603 157.512 27.624C157.475 27.6878 157.465 27.7636 157.485 27.8346C157.698 29.153 157.918 30.5587 158.409 31.8048C158.615 32.3805 158.976 32.8879 159.453 33.2707C160.079 33.7342 160.88 33.8004 161.56 34.1285L161.455 33.7282C161.343 33.9389 160.934 33.9329 160.729 33.972C160.378 34.0586 160.021 34.1229 159.661 34.1647C159.356 34.1674 159.054 34.1002 158.779 33.9682C158.504 33.8361 158.263 33.6428 158.075 33.4031C157.241 32.4851 157.018 31.2118 156.217 30.2848C156.04 30.0771 155.763 30.3721 155.916 30.5858H155.925Z" fill="black"/>
<path d="M164.254 20.123V20.0899C164.256 20.0608 164.256 20.0317 164.254 20.0026C164.235 19.9426 164.203 19.8873 164.161 19.8401C164.079 19.7633 163.972 19.7203 163.86 19.7197C163.826 19.7168 163.792 19.7168 163.757 19.7197H163.715C163.668 19.7364 163.623 19.7576 163.58 19.7829C163.496 19.8378 163.426 19.9108 163.375 19.9966C163.327 20.0846 163.299 20.1823 163.294 20.2825C163.285 20.3865 163.306 20.4908 163.354 20.5835C163.376 20.6242 163.403 20.6617 163.435 20.6949C163.451 20.714 163.469 20.7303 163.49 20.7431C163.507 20.7588 163.527 20.7729 163.547 20.7852C163.639 20.8347 163.745 20.8526 163.848 20.8364C163.909 20.8285 163.968 20.8102 164.022 20.7822C164.064 20.7611 164.102 20.7325 164.134 20.6979C164.159 20.6725 164.181 20.6442 164.2 20.6136C164.233 20.5592 164.251 20.4968 164.251 20.433C164.252 20.3607 164.232 20.2897 164.194 20.2284L164.149 20.1651L164.086 20.12L164.013 20.0869C163.974 20.0763 163.932 20.0763 163.893 20.0869C163.867 20.0868 163.841 20.093 163.818 20.1049C163.793 20.1132 163.771 20.1265 163.751 20.1441C163.731 20.159 163.712 20.1773 163.697 20.1983C163.671 20.2271 163.652 20.2623 163.643 20.3006L163.673 20.2253C163.675 20.2333 163.675 20.2415 163.673 20.2494L163.721 20.1862L163.643 20.2886L163.694 20.2223C163.686 20.2321 163.677 20.2412 163.667 20.2494L163.733 20.1983L163.697 20.2193L163.776 20.1862L163.724 20.2013H163.812H163.764H163.848H163.809L163.884 20.2344C163.872 20.2313 163.862 20.2251 163.854 20.2163L163.917 20.2675C163.905 20.2579 163.895 20.2468 163.887 20.2344L163.935 20.3006C163.926 20.2862 163.918 20.2711 163.911 20.2554L163.941 20.3307C163.932 20.3116 163.926 20.2913 163.923 20.2705V20.3518C163.92 20.3227 163.92 20.2935 163.923 20.2645V20.3488C163.929 20.3202 163.937 20.292 163.947 20.2645L163.917 20.3367C163.933 20.3024 163.951 20.2692 163.971 20.2374L163.926 20.3006C163.94 20.2797 163.957 20.2614 163.977 20.2464L163.917 20.2946C163.934 20.2805 163.952 20.2684 163.971 20.2585L163.905 20.2886L163.956 20.2735H163.881H163.932H163.857L163.908 20.2886L163.842 20.2615L163.929 20.2946H163.953L163.89 20.2675C163.901 20.2705 163.912 20.2768 163.92 20.2855L163.872 20.2464L163.896 20.2705L163.86 20.2223C163.886 20.2649 163.925 20.2977 163.971 20.3156C164.019 20.3337 164.071 20.3337 164.119 20.3156C164.156 20.3035 164.191 20.284 164.221 20.2585C164.264 20.2137 164.288 20.1548 164.29 20.0929L164.254 20.123Z" fill="black"/>
<path d="M164.907 18.317C164.886 18.1695 164.73 18.0612 164.606 17.9799C164.591 17.9799 164.51 17.9016 164.489 17.9076L164.528 17.9377L164.432 17.8625C164.381 17.8373 164.329 17.8162 164.275 17.7993C164.044 17.7426 163.806 17.7143 163.568 17.715L163.712 17.7331H163.688L163.544 18.7986C163.694 18.7986 163.845 18.7745 163.998 18.7745C164.15 18.7776 164.302 18.7896 164.453 18.8106L164.305 18.7926H164.335L164.483 17.712C164.223 17.6939 163.963 17.6939 163.703 17.712L163.321 17.7481C163.149 17.7577 162.979 17.7839 162.812 17.8264C162.741 17.8445 162.673 17.8768 162.614 17.9214C162.555 17.9661 162.505 18.0221 162.468 18.0862C162.431 18.1503 162.407 18.2212 162.398 18.2946C162.389 18.3681 162.395 18.4427 162.415 18.514C162.435 18.5852 162.469 18.6517 162.515 18.7095C162.562 18.7673 162.619 18.8153 162.684 18.8505C162.749 18.8857 162.821 18.9076 162.895 18.9147C162.968 18.9218 163.043 18.914 163.113 18.8919L163.237 18.8558C163.33 18.8287 163.414 18.775 163.478 18.7013C163.541 18.6275 163.582 18.5369 163.595 18.4404C163.607 18.3435 163.591 18.2452 163.549 18.1571C163.507 18.0691 163.44 17.995 163.357 17.9438L163.246 17.8806L162.966 18.913C163.152 18.8949 163.336 18.8468 163.523 18.8197L163.375 18.8407C163.745 18.7956 164.118 18.7896 164.489 18.8227C164.561 18.8225 164.633 18.8081 164.699 18.7802C164.766 18.7523 164.826 18.7115 164.877 18.6601C164.96 18.5736 165.014 18.463 165.031 18.3441C165.05 18.2129 165.021 18.0791 164.948 17.9682C164.875 17.8572 164.764 17.7768 164.636 17.7421C164.229 17.6699 163.813 17.6699 163.405 17.7421C163.331 17.7625 163.262 17.7986 163.203 17.8479C163.144 17.8971 163.096 17.9585 163.063 18.0278C163.03 18.0971 163.012 18.1727 163.01 18.2496C163.008 18.3265 163.023 18.4028 163.053 18.4735C163.079 18.5425 163.119 18.6051 163.171 18.657C163.223 18.709 163.285 18.7491 163.354 18.7745C163.432 18.806 163.516 18.8199 163.599 18.8153C163.683 18.8106 163.765 18.7874 163.839 18.7474H163.86L163.733 18.8016C163.878 18.7667 164.025 18.7396 164.173 18.7203L164.046 18.7354H164.203C164.257 18.7354 164.326 18.7354 164.369 18.7083C164.411 18.6812 164.399 18.6933 164.332 18.7083H164.444H164.411H164.45C164.537 18.7294 164.628 18.7294 164.715 18.7083C164.787 18.6853 164.848 18.636 164.885 18.5702C164.922 18.5043 164.934 18.4268 164.916 18.3531L164.907 18.317Z" fill="black"/>
<path d="M155.215 19.8039H155.251C155.29 19.8039 155.209 19.7829 155.251 19.8039C155.27 19.8198 155.292 19.8329 155.314 19.8431L155.342 19.8672L155.366 19.8973C155.396 19.9274 155.335 19.8521 155.366 19.8973C155.38 19.9176 155.393 19.9387 155.405 19.9605L155.423 19.9996C155.423 20.0207 155.402 19.9454 155.423 19.9996C155.443 20.0562 155.457 20.1147 155.465 20.1742V20.111C155.477 20.1948 155.477 20.2799 155.465 20.3638V20.2946V20.3337L155.489 20.2735C155.489 20.2735 155.465 20.3156 155.489 20.2735C155.497 20.2614 155.507 20.2511 155.519 20.2434C155.539 20.2294 155.539 20.2294 155.519 20.2434L155.579 20.2193H155.552H155.618C155.61 20.2223 155.6 20.2223 155.591 20.2193H155.658H155.643L155.703 20.2464C155.73 20.2629 155.752 20.2856 155.769 20.3126L155.793 20.3728C155.791 20.3659 155.791 20.3587 155.793 20.3518V20.421V20.4902C155.792 20.4833 155.792 20.4761 155.793 20.4692L155.766 20.5294V20.5113L155.724 20.5625L155.742 20.5474L155.691 20.5865H155.709L155.649 20.6106H155.673H155.603H155.649H155.579C155.625 20.6245 155.673 20.6336 155.721 20.6377C155.77 20.6367 155.818 20.6214 155.859 20.5936C155.899 20.5658 155.931 20.5267 155.95 20.4812C155.969 20.4356 155.975 20.3852 155.966 20.3364C155.957 20.2877 155.933 20.2427 155.898 20.2073C155.848 20.1607 155.786 20.1281 155.719 20.1128C155.652 20.0974 155.582 20.0999 155.516 20.12C155.446 20.1409 155.385 20.1832 155.341 20.2411C155.296 20.2989 155.271 20.3692 155.269 20.4421C155.272 20.511 155.296 20.5773 155.339 20.6314C155.382 20.6855 155.441 20.7246 155.507 20.7431C155.566 20.7573 155.628 20.7559 155.687 20.739C155.745 20.7221 155.799 20.6903 155.841 20.6467C155.898 20.5668 155.934 20.4743 155.946 20.3773C155.959 20.2802 155.948 20.1816 155.913 20.0899C155.881 19.9354 155.811 19.791 155.712 19.6685C155.611 19.5435 155.469 19.4582 155.311 19.4277C155.257 19.4135 155.198 19.421 155.149 19.4488C155.102 19.4772 155.068 19.5224 155.053 19.5752C155.038 19.6291 155.045 19.6866 155.073 19.7352C155.1 19.7837 155.146 19.8193 155.2 19.834L155.215 19.8039Z" fill="black"/>
<path d="M160.829 25.0504C160.804 25.3189 160.855 25.589 160.976 25.83C161.077 26.0802 161.214 26.3144 161.383 26.5253C161.695 26.9339 162.123 27.24 162.611 27.4042C162.674 27.4209 162.742 27.4141 162.801 27.385C162.86 27.3559 162.907 27.3064 162.933 27.2457C162.958 27.1849 162.961 27.117 162.941 27.0544C162.92 26.9917 162.878 26.9385 162.821 26.9045C162.617 26.8176 162.424 26.7086 162.243 26.5794C162.243 26.5794 162.192 26.5403 162.219 26.5794L162.15 26.5223L162.021 26.4019C161.943 26.326 161.869 26.2456 161.801 26.1611L161.732 26.0647C161.702 26.0196 161.672 25.9744 161.644 25.9293C161.588 25.832 161.536 25.7315 161.491 25.6283C161.455 25.5419 161.424 25.4535 161.398 25.3634C161.372 25.2355 161.334 25.1105 161.283 24.9902C161.257 24.9495 161.22 24.9172 161.177 24.8968C161.133 24.8765 161.085 24.869 161.037 24.8754C160.989 24.8817 160.944 24.9015 160.907 24.9325C160.87 24.9635 160.843 25.0044 160.829 25.0504V25.0504Z" fill="black"/>
<path d="M166.283 13.9284C164.85 14.4311 163.444 15.009 162.021 15.5328C160.874 15.9542 159.64 16.2973 158.863 17.3388C157.765 18.8287 158.032 20.9508 157.942 22.7116C157.825 24.9811 157.807 27.2567 157.765 29.5262C157.75 30.2517 157.689 31.0794 157.132 31.5219C155.817 32.5724 153.539 31.6754 152.163 31.1878C149.219 30.1493 146.161 28.4035 144.665 25.55C142.796 21.9802 141.589 17.7571 142.703 13.8652C143.515 11.2028 145.239 8.91157 147.573 7.39371C149.872 5.91976 152.515 5.06917 155.242 4.92551C157.918 4.7419 160.763 5.18136 163.068 6.63218C165.374 8.083 168.652 13.215 166.268 13.9224" fill="#FE9102"/>
<path d="M166.211 13.6666C164.67 14.1873 163.155 14.7953 161.62 15.3311C160.449 15.7404 159.212 16.1919 158.472 17.2484C157.731 18.305 157.608 19.7106 157.584 20.9929C157.551 22.531 157.482 24.0661 157.443 25.6042C157.422 26.447 157.408 27.2878 157.4 28.1266C157.44 28.8776 157.418 29.6307 157.334 30.3781C157.297 30.6737 157.167 30.9499 156.962 31.1665C156.758 31.383 156.489 31.5286 156.196 31.5821C155.597 31.6977 154.979 31.6751 154.39 31.5159C153.2 31.2295 152.039 30.8324 150.923 30.3299C149.709 29.8212 148.566 29.1586 147.522 28.3584C146.485 27.5655 145.624 26.5662 144.993 25.4236C144.269 24.0833 143.687 22.6709 143.256 21.2096C142.441 18.3923 142.302 15.316 143.53 12.592C145.968 7.18903 152.259 4.7419 157.912 5.29574C159.384 5.42674 160.819 5.82988 162.144 6.48469C163.061 6.9557 163.879 7.59961 164.552 8.38099C165.24 9.1492 165.821 10.0068 166.28 10.9305C166.581 11.5325 166.972 12.4355 166.752 13.1217C166.713 13.2463 166.643 13.359 166.549 13.4499C166.455 13.5408 166.339 13.6069 166.214 13.6425C165.846 13.7569 166.003 14.3348 166.373 14.2174C168.294 13.6154 167.195 11.1442 166.521 9.9793C165.967 9.02304 165.289 8.14448 164.504 7.36662C163.633 6.53108 162.601 5.88266 161.47 5.46129C158.61 4.32953 155.339 4.33856 152.374 5.02183C149.409 5.7051 146.676 7.18903 144.716 9.50372C142.774 11.7836 141.785 14.7247 141.956 17.715C142.052 19.2933 142.368 20.8504 142.895 22.3414C143.361 23.8123 144.013 25.2174 144.837 26.5223C146.39 28.8369 148.891 30.3149 151.441 31.3051C152.614 31.7597 153.849 32.2352 155.104 32.3556C156.359 32.476 157.695 32.0366 158.014 30.6881C158.145 29.9188 158.197 29.1382 158.168 28.3584C158.192 27.4554 158.207 26.5795 158.228 25.6885C158.264 24.0872 158.33 22.4859 158.367 20.8725C158.4 19.4759 158.571 17.8444 159.766 16.9264C160.319 16.5353 160.928 16.2308 161.572 16.0234C162.346 15.7224 163.113 15.4214 163.878 15.1204C164.697 14.7923 165.518 14.4672 166.346 14.1662C166.674 14.0488 166.539 13.5251 166.202 13.6395L166.211 13.6666Z" fill="#FE9102"/>
<path d="M142.952 33.2165C143.672 32.5904 144.358 31.9192 145.035 31.245C145.535 30.7483 145.637 30.6249 146.309 30.8266C148.379 31.4496 150.408 32.4399 152.368 33.3459C153.831 34.0232 155.284 34.7064 156.744 35.3897C157.021 35.5191 157.322 35.5372 157.587 35.6516C158.144 35.8894 158.038 35.9947 158.02 36.6539C158.022 37.7824 157.914 38.9084 157.698 40.0161C157.464 41.0756 156.696 41.1117 155.655 40.9522C153.347 40.6181 151.109 39.9062 149.033 38.8452C147.434 38.0295 145.658 37.1897 144.397 35.8773C143.816 35.2753 143.088 34.6041 142.733 33.8335C142.783 33.8742 142.821 33.9286 142.841 33.9901" fill="#FE9102"/>
<path d="M143.103 33.367C143.633 32.9215 144.15 32.464 144.656 31.9824L145.318 31.3593C145.469 31.2178 145.619 31.0342 145.839 31.0342C146.088 31.0632 146.332 31.1302 146.561 31.2329C146.898 31.3443 147.236 31.4647 147.567 31.5911C148.232 31.8439 148.888 32.1239 149.538 32.4158C150.781 32.9757 152.015 33.5626 153.25 34.1436L155.17 35.0466C155.741 35.3597 156.337 35.6255 156.952 35.8412C157.123 35.8864 157.524 35.9225 157.644 36.079C157.698 36.1482 157.674 36.2626 157.671 36.3619C157.644 37.0001 157.632 37.6352 157.584 38.2703C157.575 38.9106 157.474 39.5462 157.283 40.1576C157.216 40.3236 157.096 40.4631 156.942 40.555C156.789 40.6468 156.609 40.6859 156.431 40.6662C155.863 40.6522 155.297 40.5806 154.743 40.4525C154.141 40.3362 153.539 40.1927 152.937 40.0221C151.676 39.6632 150.451 39.1865 149.279 38.5984C148.058 38.0309 146.882 37.3687 145.764 36.6178C145.224 36.2163 144.72 35.7681 144.259 35.2783C143.76 34.8165 143.341 34.2767 143.016 33.68L142.522 34.0593L142.579 34.1526C142.76 34.5138 143.302 34.1947 143.121 33.8335C143.081 33.7525 143.028 33.6784 142.964 33.6138C142.712 33.3399 142.323 33.6891 142.471 33.9961C142.778 34.5715 143.173 35.0956 143.642 35.5492C144.084 36.0297 144.559 36.4792 145.062 36.8947C146.155 37.6945 147.322 38.387 148.548 38.9626C149.792 39.6119 151.092 40.1498 152.431 40.5699C153.134 40.7829 153.847 40.9597 154.568 41.0997C155.166 41.2439 155.775 41.3346 156.389 41.3706C156.61 41.3882 156.832 41.3619 157.043 41.2932C157.254 41.2245 157.449 41.1147 157.617 40.9703C158.026 40.5699 158.105 39.9529 158.189 39.4141C158.293 38.6858 158.356 37.9522 158.376 37.2168C158.376 36.7984 158.529 36.1573 158.324 35.763C158.087 35.3054 157.464 35.2543 157.03 35.1068C156.297 34.8139 155.579 34.4823 154.881 34.1135C153.457 33.4573 152.037 32.7951 150.61 32.151C149.842 31.8048 149.069 31.4707 148.283 31.1667C147.567 30.8928 146.778 30.5286 146.011 30.4413C145.409 30.3751 145.077 30.8085 144.701 31.1998C144.099 31.8379 143.467 32.47 142.811 33.066C142.606 33.2496 142.904 33.5356 143.112 33.367H143.103Z" fill="black"/>
<path d="M158.433 18.4254C158.186 20.9026 158.023 23.3858 157.864 25.8691C157.786 27.1092 157.709 28.3503 157.635 29.5925C157.59 30.366 157.512 31.3985 156.732 31.7717C156.47 31.9011 156.657 32.3737 156.934 32.2503C157.756 31.9192 158.108 31.1035 158.231 30.2727C158.415 29.0446 158.418 27.7774 158.49 26.5403C158.646 23.8313 158.791 21.1223 158.869 18.4133C158.869 18.1334 158.466 18.1454 158.439 18.4133L158.433 18.4254Z" fill="black"/>
<path d="M159.823 17.0679C161.386 16.6103 162.924 16.0565 164.438 15.4635C165.139 15.1866 165.858 14.9307 166.545 14.6147C167.068 14.3739 167.61 13.8351 167.351 13.209C167.325 13.1302 167.27 13.0645 167.196 13.0254C167.123 12.9863 167.037 12.9767 166.957 12.9987C166.877 13.0206 166.808 13.0724 166.765 13.1435C166.722 13.2145 166.708 13.2994 166.725 13.3806C166.84 13.9645 165.747 14.2475 165.362 14.413C164.76 14.6809 164.125 14.9338 163.499 15.1836C162.243 15.6863 160.976 16.1679 159.715 16.6585C159.468 16.7548 159.559 17.1461 159.826 17.0679H159.823Z" fill="black"/>
<path d="M155.76 79.9136C155.405 80.2779 155.236 81.0605 155.712 81.4187C155.986 81.5522 156.281 81.6358 156.585 81.6655L157.789 81.9484C159.342 82.3036 160.889 82.6708 162.433 83.0621C165.699 83.8868 168.944 84.8049 172.131 85.9005C178.284 88.0075 184.563 90.8098 189.391 95.2827C191.486 97.2035 193.073 99.6129 194.011 102.296C194.865 104.891 195.229 107.622 195.086 110.351C194.86 116.253 192.945 122.03 190.649 127.423C188.163 133.266 185.074 138.861 182.01 144.4C179.977 148.088 177.9 151.746 175.779 155.374C174.732 157.18 173.672 158.974 172.601 160.756C172.055 161.665 171.508 162.568 170.96 163.465C170.527 164.179 170.033 164.934 170 165.795C169.958 166.903 170.994 167.601 171.806 168.167C172.315 168.537 172.845 168.88 173.338 169.269C173.672 169.533 174.139 169.871 174.289 170.286C174.765 171.613 172.643 172.393 171.707 172.54C170.404 172.757 168.998 172.586 167.701 172.51C167.041 172.471 166.382 172.429 165.72 172.423C165.139 172.423 164.561 172.483 163.977 172.471C162.725 172.447 161.268 172.17 160.513 171.087C159.513 169.663 159.911 167.475 160.242 165.903C160.657 163.968 161.232 162.09 161.536 160.127C162.177 156.009 162.857 151.901 163.751 147.831C164.645 143.762 165.72 139.674 166.909 135.653C167.944 132.139 169.052 128.646 170.232 125.172C171.07 122.672 172.093 120.238 173.293 117.891C174.127 116.277 175.036 114.706 175.981 113.156C176.012 113.102 176.028 113.041 176.028 112.979C176.028 112.917 176.012 112.856 175.982 112.802C175.952 112.748 175.908 112.703 175.855 112.67C175.802 112.638 175.742 112.62 175.68 112.617C171.352 112.684 166.969 111.919 162.719 111.182C157.963 110.357 153.225 109.376 148.542 108.205C143.593 106.965 138.35 105.42 134.539 101.848C130.584 98.1362 129.188 92.658 129.537 87.3754C129.77 84.4338 130.377 81.5339 131.343 78.7458C132.246 76.0879 133.519 73.5926 134.813 71.1154C135.03 70.7 134.401 70.3328 134.184 70.7482C132.952 72.9928 131.869 75.3154 130.939 77.7013C130.023 80.1976 129.371 82.7833 128.995 85.4159C128.261 90.6413 129.055 96.3121 132.372 100.565C135.689 104.818 140.894 106.856 145.917 108.259C150.715 109.604 155.618 110.619 160.516 111.516C165.1 112.355 169.771 113.174 174.437 113.322C174.849 113.322 175.259 113.34 175.671 113.322L175.37 112.786C173.618 115.595 172.093 118.539 170.81 121.59C169.732 124.221 168.89 126.951 168.026 129.654C165.425 137.781 163.186 146.031 161.741 154.453C161.383 156.56 161.073 158.646 160.735 160.741C160.434 162.701 159.739 164.582 159.405 166.538C159.143 168.086 158.96 170.018 159.872 171.403C160.561 172.447 161.738 172.938 162.939 173.103C164.14 173.269 165.407 173.103 166.641 173.163C168.08 173.233 169.522 173.386 170.96 173.329C172.131 173.281 173.414 172.956 174.302 172.146C175.189 171.336 175.268 170.165 174.452 169.311C173.636 168.456 172.529 167.887 171.608 167.14C171.289 166.879 170.834 166.538 170.738 166.111C170.53 165.172 171.442 164.076 171.894 163.33C174.101 159.68 176.266 156.002 178.389 152.298C182.052 145.899 185.697 139.454 188.924 132.829C191.531 127.505 193.851 121.939 195.043 116.109C196.151 110.691 196.247 104.785 193.65 99.7495C192.28 97.0947 190.236 94.9757 187.889 93.1637C185.269 91.1829 182.436 89.5009 179.443 88.149C173.266 85.2895 166.668 83.4414 160.052 81.9183C159.3 81.7467 158.547 81.5752 157.792 81.4096C157.412 81.3253 157.03 81.2501 156.648 81.1718C156.481 81.1541 156.315 81.1209 156.154 81.0725C155.778 80.922 155.817 80.4705 156.058 80.2116C156.242 80.013 155.953 79.718 155.757 79.9106L155.76 79.9136Z" fill="black"/>
<path d="M213.474 55.3641C215.228 53.7959 217.721 53.4377 220.057 53.1487C220.884 53.0464 221.763 52.9501 222.528 53.2932C223.238 53.6153 223.732 54.2714 224.123 54.9517C224.887 56.3109 225.3 57.8387 225.327 59.3975C225.353 59.7195 225.303 60.043 225.183 60.3426C225.033 60.6078 224.834 60.8419 224.596 61.0319L222.437 62.9974" fill="white"/>
<path d="M143.87 41.3194C148.942 39.0017 154.944 39.682 160.155 41.6716C165.365 43.6612 170.012 46.8488 174.846 49.627C179.68 52.4053 184.918 54.8403 190.498 55.0781C193.722 55.2136 196.922 54.6056 200.13 54.2233C203.598 53.8049 208.7 54.3226 212.191 54.431C212.881 54.4521 213.618 54.5002 214.163 54.9246C216.228 56.532 216.616 61.6369 214.533 63.3316C213.82 63.9125 212.917 64.1984 212.035 64.4573C203.222 67.064 191.994 68.9241 182.802 69.0024C175.277 69.0656 168.053 67.0519 161.085 64.1864C154.116 61.3209 147.377 57.447 144.141 50.6233C143.422 49.1183 142.275 44.5431 143.87 41.3194" fill="black"/>
<path d="M143.979 41.494C149.376 39.086 155.612 40.0914 160.901 42.2887C166.512 44.6244 171.436 48.2394 176.776 51.1019C179.352 52.5307 182.078 53.6733 184.903 54.5093C187.815 55.3233 190.851 55.6067 193.864 55.346C196.804 55.1052 199.706 54.4731 202.659 54.425C205.338 54.3828 208.011 54.5905 210.683 54.726C211.306 54.7591 211.933 54.7681 212.556 54.8042C213.152 54.7909 213.732 55.0062 214.175 55.4062C214.786 56.0833 215.197 56.9171 215.361 57.8142C215.743 59.4818 215.725 61.965 214.217 63.1118C213.14 63.9306 211.641 64.2015 210.364 64.5566C209.028 64.9259 207.685 65.271 206.337 65.5921C203.489 66.2663 200.622 66.8362 197.734 67.3018C194.847 67.7673 191.948 68.1205 189.038 68.3613C186.221 68.6225 183.39 68.7049 180.562 68.6081C174.425 68.3282 168.435 66.6907 162.737 64.4603C157.951 62.5881 153.135 60.3276 149.303 56.83C147.455 55.168 145.918 53.1895 144.764 50.9876C143.851 49.1261 143.404 47.0704 143.461 44.9977C143.453 43.7901 143.709 42.5954 144.211 41.497C144.421 41.0576 143.768 40.6723 143.554 41.1117C142.465 43.3632 142.531 46.0241 143.058 48.42C143.536 50.5902 144.617 52.5227 145.959 54.2835C149.096 58.3982 153.596 61.1915 158.24 63.3135C163.797 65.866 169.717 67.8887 175.779 68.8007C181.706 69.7037 187.744 69.2763 193.665 68.5328C199.548 67.8153 205.37 66.6592 211.081 65.0744C212.366 64.7132 213.79 64.4091 214.84 63.5122C215.503 62.8772 215.946 62.0473 216.104 61.1433C216.514 59.25 216.246 56.9142 215.063 55.328C214.788 54.9252 214.418 54.5965 213.985 54.3708C213.365 54.1262 212.701 54.0125 212.035 54.0367C210.713 53.9915 209.395 53.9073 208.077 53.832C205.389 53.6845 202.659 53.531 199.983 53.8471C196.702 54.2444 193.418 54.8644 190.101 54.6628C187.04 54.4761 184.054 53.6093 181.237 52.4233C175.499 50.0153 170.449 46.31 164.937 43.4626C159.679 40.7536 153.707 38.8061 147.738 39.8656C146.369 40.1101 145.036 40.5268 143.771 41.1057C143.515 41.2231 143.738 41.5964 143.991 41.482L143.979 41.494Z" fill="black"/>
<path d="M213.576 55.5507C214.072 55.1984 214.593 54.8835 215.135 54.6086C215.708 54.351 216.305 54.1494 216.917 54.0066C218.145 53.7267 219.391 53.5366 220.646 53.4377C221.333 53.3745 222.046 53.3835 222.648 53.7597C223.16 54.1245 223.574 54.6106 223.852 55.1745C224.539 56.3859 224.936 57.7394 225.014 59.1296C225.07 59.5052 225.028 59.8891 224.891 60.2433C224.694 60.5423 224.447 60.8042 224.159 61.0169C223.512 61.6008 222.817 62.1576 222.227 62.7988C222.025 63.0185 222.299 63.4339 222.561 63.2352C223.235 62.7205 223.84 62.1035 224.466 61.5316C224.975 61.065 225.484 60.6436 225.577 59.9182C225.76 58.4553 225.336 56.8209 224.749 55.4965C224.162 54.1721 223.31 52.935 221.808 52.7333C221.058 52.6751 220.303 52.7135 219.563 52.8477C218.85 52.941 218.142 53.0524 217.438 53.2089C216.017 53.528 214.289 54.0577 213.308 55.2106C213.161 55.3851 213.35 55.6861 213.567 55.5477L213.576 55.5507Z" fill="black"/>
<path d="M220.18 57.0376C218.741 57.0708 217.314 57.9828 216.842 59.3433C216.369 60.7038 217.025 62.4075 218.347 62.9553C218.865 63.1496 219.427 63.1962 219.97 63.0899C220.513 62.9836 221.016 62.7286 221.423 62.3533C221.822 61.9686 222.136 61.5042 222.343 60.9902C222.551 60.4762 222.647 59.9243 222.627 59.3704C222.647 58.8348 222.478 58.3093 222.148 57.8865C221.796 57.4891 220.746 56.9835 220.174 57.0437" fill="black"/>
<path d="M220.18 56.845C219.495 56.8253 218.817 56.9904 218.217 57.323C217.618 57.6556 217.119 58.1434 216.773 58.7353C216.459 59.3114 216.322 59.9673 216.378 60.621C216.435 61.2746 216.683 61.897 217.092 62.4105C217.533 62.9313 218.136 63.2889 218.805 63.4259C219.473 63.5629 220.169 63.4714 220.779 63.166C222.173 62.5339 222.937 61.0259 222.973 59.554C222.991 58.7774 222.811 57.9316 222.167 57.447C221.601 57.0027 220.898 56.7705 220.18 56.7908C219.852 56.8269 219.84 57.3326 220.18 57.3146C220.692 57.2845 221.167 57.5794 221.577 57.8564C221.798 58.0124 221.979 58.2199 222.102 58.4611C222.226 58.7023 222.29 58.9699 222.287 59.241C222.353 60.4299 221.878 61.7393 220.833 62.3954C219.882 62.9974 218.588 63.0125 217.769 62.1727C217.417 61.7987 217.178 61.3337 217.077 60.8303C216.977 60.327 217.019 59.8056 217.2 59.3252C217.667 58.1212 218.94 57.3898 220.18 57.2574C220.234 57.2574 220.286 57.2358 220.325 57.1974C220.363 57.159 220.385 57.107 220.385 57.0527C220.385 56.9984 220.363 56.9463 220.325 56.908C220.286 56.8696 220.234 56.848 220.18 56.848V56.845Z" fill="black"/>
<path d="M174.01 159.086C171.325 158.703 168.432 159.591 166.858 161.771C167.363 160.847 166.668 159.633 165.702 159.206C164.736 158.779 163.628 158.905 162.584 159.056L161.319 159.23C161.239 159.762 161.156 160.297 161.07 160.834C160.618 163.742 159.264 166.629 159.619 169.63C159.968 172.516 162.587 172.983 165.058 172.799C166.641 172.682 170.557 173.239 172.092 172.835C173.248 172.534 174.777 171.857 174.675 170.427C174.572 169.058 170.563 167.514 170.376 166.153C170.268 165.362 170.702 164.606 171.117 163.923C172.088 162.311 173.052 160.699 174.01 159.086Z" fill="black"/>
<path d="M149.764 83.0832C149.463 83.6852 149.237 84.3383 148.954 84.9554C148.671 85.5724 148.352 86.2316 148.051 86.8577C147.425 88.0958 146.742 89.2998 146.002 90.4697H146.519L145.129 87.8269L144.939 88.2905C145.743 88.1279 146.585 88.0196 147.371 87.7848C147.696 87.6855 147.654 87.1166 147.287 87.1587C146.441 87.2641 145.601 87.5018 144.77 87.6794C144.724 87.6931 144.681 87.7171 144.645 87.7496C144.61 87.7821 144.581 87.8222 144.563 87.8671C144.545 87.9119 144.537 87.9602 144.54 88.0085C144.543 88.0568 144.557 88.1038 144.581 88.146L146.002 90.7737C146.028 90.8186 146.066 90.8558 146.111 90.8817C146.157 90.9075 146.208 90.9211 146.26 90.9211C146.313 90.9211 146.364 90.9075 146.409 90.8817C146.455 90.8558 146.493 90.8186 146.519 90.7737C147.256 89.5697 147.936 88.3366 148.56 87.0744C148.859 86.4724 149.141 85.8524 149.406 85.2142C149.702 84.5768 149.957 83.9213 150.17 83.2517C150.237 83.02 149.869 82.8574 149.773 83.0832H149.764Z" fill="#FE9102"/>
<path d="M145.947 92.5857C145.559 93.6874 146.062 94.8884 146.889 95.6499C147.874 96.5529 149.237 96.89 150.501 97.2542C153.301 98.0669 156.031 99.0934 158.737 100.168C164.155 102.32 169.531 104.698 175.265 105.872C176.914 106.209 178.591 106.396 180.231 106.775C180.644 106.868 181.056 106.971 181.459 107.094C181.79 107.196 182.266 107.314 182.362 107.711C182.492 108.352 181.568 108.915 181.098 109.162C181.057 109.189 181.024 109.227 181 109.27C180.977 109.314 180.965 109.362 180.965 109.412C180.965 109.461 180.977 109.51 181 109.553C181.024 109.597 181.057 109.634 181.098 109.661C181.599 110.005 182.145 110.279 182.72 110.474L182.537 110.026C175.927 121.477 170.996 133.817 167.893 146.669C167.02 150.293 166.296 153.95 165.72 157.638C165.669 157.972 166.178 158.113 166.229 157.779C168.302 144.75 172.23 132.085 177.892 120.169C179.482 116.822 181.205 113.543 183.064 110.333C183.088 110.293 183.102 110.248 183.105 110.201C183.109 110.155 183.102 110.108 183.084 110.065C183.067 110.022 183.04 109.983 183.005 109.952C182.97 109.922 182.928 109.899 182.883 109.887C182.355 109.703 181.851 109.46 181.378 109.162V109.661C182.167 109.225 183.434 108.202 182.723 107.19C182.38 106.697 181.679 106.561 181.137 106.417C180.388 106.215 179.632 106.068 178.859 105.938C177.354 105.679 175.849 105.456 174.362 105.113C172.875 104.77 171.49 104.376 170.081 103.909C164.405 102.082 159.008 99.4907 153.358 97.5884C152.587 97.3295 151.813 97.0877 151.034 96.863C150.267 96.6402 149.484 96.4536 148.741 96.1676C147.374 95.6409 145.842 94.3406 146.408 92.7001C146.504 92.4202 146.062 92.3028 145.962 92.5797L145.947 92.5857Z" fill="#FE9102"/>
<path d="M171.03 162.376H171.213H171.289H171.343C171.37 162.376 171.376 162.376 171.343 162.376C171.454 162.376 171.565 162.412 171.674 162.436C171.903 162.487 172.119 162.571 172.342 162.634C172.397 162.648 172.455 162.641 172.506 162.615C172.557 162.59 172.597 162.547 172.619 162.495C172.642 162.443 172.645 162.384 172.628 162.33C172.612 162.276 172.576 162.229 172.529 162.198C172.292 162.09 172.042 162.016 171.785 161.978C171.531 161.932 171.273 161.907 171.015 161.906C170.956 161.906 170.9 161.929 170.859 161.97C170.818 162.012 170.795 162.068 170.795 162.126C170.796 162.184 170.82 162.239 170.861 162.279C170.902 162.32 170.957 162.344 171.015 162.346L171.03 162.376Z" fill="#FE9102"/>
<path d="M170.259 163.872C170.511 163.911 170.76 163.965 171.006 164.031C171.123 164.061 171.24 164.1 171.358 164.136C171.475 164.173 171.611 164.218 171.737 164.245C171.792 164.259 171.851 164.253 171.902 164.228C171.953 164.204 171.994 164.161 172.017 164.109C172.041 164.056 172.045 163.996 172.027 163.94C172.009 163.885 171.971 163.838 171.921 163.808C171.668 163.694 171.402 163.614 171.129 163.571C170.859 163.516 170.587 163.477 170.313 163.453C170.261 163.452 170.211 163.47 170.172 163.504C170.132 163.538 170.107 163.585 170.1 163.637C170.093 163.688 170.106 163.74 170.135 163.783C170.165 163.826 170.209 163.856 170.259 163.869V163.872Z" fill="#FE9102"/>
<path d="M169.699 165.238L170.355 165.419L170.683 165.512C170.792 165.546 170.903 165.574 171.015 165.596C171.076 165.614 171.143 165.607 171.199 165.576C171.256 165.545 171.297 165.492 171.316 165.431C171.325 165.4 171.328 165.368 171.324 165.336C171.321 165.304 171.311 165.274 171.296 165.246C171.281 165.217 171.26 165.193 171.235 165.173C171.21 165.153 171.181 165.138 171.15 165.13C171.043 165.094 170.933 165.066 170.822 165.045L170.491 164.964L169.829 164.808C169.775 164.798 169.719 164.809 169.673 164.838C169.627 164.867 169.593 164.912 169.579 164.965C169.564 165.018 169.569 165.074 169.594 165.123C169.618 165.172 169.66 165.209 169.711 165.229L169.699 165.238Z" fill="#FE9102"/>
<path d="M150.107 58.651C151.453 59.9062 153.198 60.5082 154.89 61.1403C156.801 61.8566 158.538 62.7717 160.022 64.1984C160.236 64.4031 160.555 64.084 160.344 63.8794C158.948 62.5411 157.282 61.5151 155.459 60.8694C153.695 60.2011 151.823 59.6503 150.408 58.344C150.206 58.1604 149.908 58.4584 150.107 58.645V58.651Z" fill="#FE9102"/>
<path d="M151.407 17.4561C150.529 18.5337 149.698 19.6534 148.927 20.8123C148.883 20.8619 148.85 20.9202 148.83 20.9835C148.809 21.0467 148.803 21.1135 148.81 21.1795C148.843 21.3089 148.975 21.3842 149.096 21.4414C149.706 21.734 150.352 21.9474 151.016 22.0765C150.673 22.7694 150.442 23.5119 150.33 24.2768C150.315 24.335 150.315 24.3961 150.33 24.4544C150.411 24.6681 150.736 24.5447 150.905 24.3882C152.106 23.2707 153.078 21.9305 153.767 20.4421C153.825 20.3415 153.852 20.2266 153.846 20.111C153.825 20.0146 153.774 19.9272 153.701 19.8611C153.147 19.2953 152.196 19.524 151.441 19.2772C151.692 18.6755 151.886 18.0518 152.022 17.414C152.001 17.3823 151.974 17.3562 151.941 17.3381C151.908 17.32 151.871 17.3105 151.833 17.3105C151.796 17.3105 151.759 17.32 151.726 17.3381C151.693 17.3562 151.665 17.3823 151.645 17.414" fill="white"/>
<path d="M204.392 179.171V172.983H191.552C191.537 176.204 191.588 179.189 191.708 181.841H204.392V179.171Z" fill="black"/>
<path d="M204.69 179.171V172.983C204.69 172.903 204.659 172.826 204.602 172.77C204.546 172.714 204.469 172.682 204.389 172.682H191.552C191.472 172.682 191.395 172.714 191.339 172.77C191.283 172.826 191.251 172.903 191.251 172.983C191.251 175.939 191.275 178.891 191.41 181.841C191.41 181.921 191.442 181.998 191.499 182.054C191.555 182.111 191.632 182.142 191.711 182.142H204.396C204.475 182.142 204.552 182.111 204.608 182.054C204.665 181.998 204.697 181.921 204.697 181.841V179.171C204.697 179.092 204.665 179.015 204.608 178.959C204.552 178.902 204.475 178.87 204.396 178.87C204.316 178.87 204.239 178.902 204.183 178.959C204.126 179.015 204.095 179.092 204.095 179.171V181.841L204.396 181.54H191.708L192.009 181.841C191.877 178.891 191.841 175.939 191.853 172.983L191.552 173.284H204.392L204.091 172.983V179.171C204.099 179.246 204.134 179.314 204.189 179.365C204.244 179.415 204.316 179.442 204.391 179.442C204.466 179.442 204.538 179.415 204.593 179.365C204.648 179.314 204.683 179.246 204.69 179.171Z" fill="black"/>
<path d="M157.479 104.602C148.834 104.012 140.177 103.675 131.508 103.59C130.99 103.534 130.467 103.631 130.003 103.87C129.774 104.051 129.586 104.279 129.452 104.539C129.318 104.798 129.241 105.083 129.227 105.375C128.953 107.819 130.852 109.968 132.875 111.368C136.713 113.994 141.323 115.251 145.962 114.938C150.592 114.588 154.997 112.799 158.559 109.821C159.525 109.02 160.492 107.994 160.501 106.739C160.51 105.484 158.932 104.331 157.975 105.131" fill="black"/>
<path d="M157.479 104.37C151.818 103.93 146.149 103.61 140.472 103.41C137.634 103.31 134.795 103.229 131.957 103.196C130.828 103.181 129.636 103.196 129.1 104.376C128.667 105.327 128.748 106.501 129.1 107.47C129.844 109.598 131.689 111.136 133.552 112.286C135.622 113.551 137.896 114.444 140.273 114.926C145.03 115.87 149.965 115.213 154.309 113.06C155.391 112.529 156.428 111.913 157.412 111.218C158.39 110.584 159.272 109.815 160.034 108.933C160.654 108.153 161.145 107.073 160.784 106.074C160.636 105.662 160.377 105.3 160.035 105.027C159.693 104.755 159.282 104.584 158.848 104.532C158.447 104.511 158.052 104.647 157.75 104.912C157.449 105.149 157.852 105.67 158.156 105.441C158.833 104.927 159.661 105.505 159.98 106.161C160.422 107.064 159.781 108.09 159.173 108.746C158.428 109.508 157.6 110.183 156.705 110.76C155.798 111.381 154.846 111.933 153.858 112.413C149.87 114.374 145.363 115.022 140.984 114.264C138.785 113.873 136.667 113.12 134.714 112.036C132.908 111.04 131.102 109.743 130.139 107.877C129.657 107.019 129.503 106.016 129.705 105.053C129.745 104.818 129.852 104.599 130.011 104.422C130.171 104.245 130.378 104.117 130.608 104.054C131.179 103.963 131.758 103.943 132.333 103.997C134.925 104.021 137.513 104.051 140.102 104.114C145.253 104.234 150.4 104.435 155.543 104.716C156.189 104.75 156.835 104.786 157.482 104.824C157.783 104.842 157.783 104.388 157.482 104.364L157.479 104.37Z" fill="black"/>
<path d="M199.832 181.841C197.891 164.928 201.238 120.756 204.492 104.042C205.368 99.5509 206.515 95.0509 208.706 91.0356C210.897 87.0203 214.253 83.4925 218.521 81.84C219.59 81.4247 220.743 81.1297 221.878 81.2982C223.563 81.5511 224.963 82.8213 225.791 84.3082C226.618 85.7952 226.977 87.4988 227.296 89.1754C230.733 106.787 227.747 151.058 226.983 169.055C226.832 172.498 225.358 175.749 222.868 178.132C220.378 180.514 217.064 181.843 213.618 181.841H202.057" fill="#FE9102"/>
<path d="M200.055 181.841C199.345 175.502 199.453 169.055 199.589 162.686C199.778 154.435 200.245 146.191 200.877 137.961C201.479 130.154 202.225 122.352 203.231 114.58C203.616 111.597 204.043 108.614 204.576 105.652C205.449 100.791 206.575 95.8576 208.923 91.475C211.165 87.2851 214.807 83.3119 219.494 81.9303C220.806 81.542 222.148 81.539 223.346 82.2584C224.374 82.9167 225.19 83.8572 225.697 84.9674C226.6 86.8216 226.901 88.9587 227.22 90.9874C228.283 97.7539 228.424 104.686 228.479 111.522C228.554 119.95 228.337 128.378 228.03 136.806C227.744 144.605 227.359 152.394 226.967 160.187C226.819 163.119 226.68 166.05 226.549 168.98C226.428 172.107 225.181 175.086 223.038 177.366C220.894 179.647 217.999 181.077 214.885 181.393C214.012 181.477 213.134 181.459 212.258 181.462C209.479 181.462 206.698 181.462 203.92 181.489C203.3 181.489 202.677 181.489 202.057 181.489C201.966 181.489 201.878 181.525 201.814 181.59C201.75 181.654 201.714 181.741 201.714 181.832C201.714 181.923 201.75 182.011 201.814 182.075C201.878 182.139 201.966 182.175 202.057 182.175C204.233 182.175 206.412 182.199 208.588 182.208H212.516C213.522 182.235 214.527 182.193 215.526 182.082C218.648 181.658 221.53 180.175 223.69 177.881C225.85 175.587 227.157 172.621 227.392 169.479C227.497 168.052 227.527 166.614 227.597 165.184C227.949 157.803 228.34 150.435 228.653 143.042C229.017 134.395 229.3 125.738 229.333 117.081C229.363 109.58 229.282 102.031 228.491 94.5723C228.337 93.1155 228.15 91.6617 227.907 90.2169C227.542 88.0527 227.16 85.747 225.995 83.8447C224.692 81.7226 222.486 80.4855 219.975 80.9792C217.582 81.4548 215.31 82.8695 213.474 84.4316C206.436 90.4155 204.606 100.156 203.282 108.843C202.168 116.154 201.422 123.523 200.79 130.888C200.061 139.352 199.522 147.834 199.218 156.322C198.959 163.546 198.809 170.81 199.269 178.025C199.351 179.301 199.456 180.574 199.604 181.841C199.637 182.121 200.076 182.124 200.046 181.841H200.055Z" fill="#FE9102"/>
<path d="M119.763 118.378H88.0801C86.5751 118.378 85.0911 118.378 83.5982 118.378C83.3046 118.384 83.0129 118.331 82.7403 118.221C82.4678 118.112 82.22 117.949 82.0116 117.742C81.8033 117.535 81.6387 117.289 81.5276 117.017C81.4164 116.745 81.3611 116.454 81.3648 116.16C81.3648 115.639 81.3648 115.122 81.3648 114.601V87.547C81.3648 86.2286 81.3407 84.9072 81.3648 83.5888C81.3726 83.0213 81.6015 82.4792 82.0028 82.0778C82.4042 81.6764 82.9463 81.4475 83.5139 81.4397H119.188C119.959 81.4397 120.693 81.4698 121.295 82.0688C121.897 82.6678 121.925 83.4353 121.925 84.227V115.955V116.229C121.918 116.797 121.69 117.34 121.288 117.742C120.886 118.144 120.343 118.372 119.775 118.378C119.696 118.378 119.619 118.41 119.563 118.467C119.506 118.523 119.474 118.6 119.474 118.679C119.474 118.759 119.506 118.836 119.563 118.892C119.619 118.949 119.696 118.98 119.775 118.98C121.398 118.947 122.524 117.647 122.524 116.07V84.1818C122.524 83.3571 122.481 82.5835 121.94 81.8882C121.292 81.0605 120.362 80.8317 119.372 80.8317H83.7547C82.4604 80.8317 81.2684 81.4939 80.8802 82.8002C80.7646 83.3419 80.7271 83.8974 80.7688 84.4497V111.326V116.16C80.7664 116.526 80.8362 116.889 80.9743 117.229C81.1124 117.568 81.316 117.877 81.5734 118.137C81.8309 118.398 82.1372 118.605 82.4748 118.747C82.8124 118.889 83.1747 118.963 83.541 118.965H84.8082H119.763C119.83 118.95 119.889 118.913 119.932 118.86C119.974 118.806 119.997 118.74 119.997 118.672C119.997 118.604 119.974 118.538 119.932 118.484C119.889 118.431 119.83 118.394 119.763 118.378V118.378Z" fill="black"/>
<path d="M86.1326 164.735C87.1071 158.278 89.7031 152.173 93.6779 146.991C97.6527 141.809 102.877 137.72 108.861 135.105C115.908 132.095 124.293 131.246 131.421 134.455C134.66 135.915 137.583 138.148 139.596 141.095C141.61 144.042 142.754 147.527 143.407 151.028C144.081 154.619 144.259 158.288 144.373 161.933C144.443 164.169 144.485 166.407 144.5 168.648C144.5 170.837 144.635 173.025 144.641 175.213V178.497C144.641 178.59 144.678 178.679 144.743 178.744C144.809 178.81 144.898 178.846 144.99 178.846C145.083 178.846 145.172 178.81 145.237 178.744C145.303 178.679 145.339 178.59 145.339 178.497C145.64 173.982 145.746 169.443 145.64 164.916C145.553 160.928 145.448 156.918 144.882 152.963C144.364 149.33 143.434 145.703 141.607 142.495C139.801 139.321 137.189 136.68 134.037 134.837C127.008 130.725 118.385 130.888 110.86 133.528C104.603 135.803 99.0371 139.649 94.6975 144.698C90.3579 149.747 87.3907 155.827 86.0814 162.355C85.9339 163.125 85.8135 163.905 85.7172 164.684C85.6871 164.913 86.0935 164.985 86.1266 164.738L86.1326 164.735Z" fill="white"/>
<path d="M144.677 180.974C144.712 181.083 144.786 181.175 144.885 181.233C144.976 181.287 145.08 181.312 145.186 181.305C145.289 181.305 145.391 181.279 145.482 181.231C145.574 181.182 145.652 181.111 145.71 181.026C145.744 180.969 145.767 180.906 145.776 180.84C145.785 180.774 145.781 180.707 145.764 180.643C145.746 180.58 145.704 180.527 145.647 180.495C145.59 180.462 145.523 180.454 145.46 180.472C145.397 180.489 145.343 180.531 145.311 180.588C145.279 180.645 145.271 180.713 145.288 180.776V180.809V180.746C145.29 180.766 145.29 180.786 145.288 180.806V180.743C145.286 180.762 145.281 180.782 145.273 180.8L145.297 180.74C145.288 180.762 145.276 180.784 145.261 180.803L145.3 180.752C145.279 180.781 145.254 180.808 145.225 180.83L145.273 180.791C145.243 180.814 145.211 180.833 145.177 180.848L145.234 180.824C145.197 180.839 145.159 180.85 145.12 180.857H145.18C145.145 180.862 145.109 180.862 145.074 180.857H145.135C145.111 180.854 145.088 180.848 145.065 180.839L145.12 180.86C145.099 180.852 145.08 180.841 145.062 180.827L145.105 180.86C145.089 180.849 145.076 180.836 145.065 180.821L145.099 180.866L145.068 180.815C145.041 180.768 144.997 180.733 144.945 180.719C144.9 180.703 144.851 180.703 144.807 180.719C144.76 180.738 144.722 180.774 144.7 180.819C144.678 180.865 144.673 180.917 144.686 180.965L144.677 180.974Z" fill="white"/>
<path d="M127.228 163.158C127.208 163.092 127.174 163.03 127.128 162.978C127.083 162.925 127.026 162.884 126.963 162.855C126.899 162.826 126.831 162.812 126.761 162.812C126.692 162.813 126.623 162.828 126.56 162.857C126.4 162.927 126.269 163.048 126.188 163.202C126.106 163.355 126.079 163.532 126.111 163.703C126.217 164.596 126.395 165.479 126.644 166.343C126.864 167.246 127.129 168.107 127.433 168.971C127.711 169.856 128.068 170.715 128.498 171.538C128.721 171.932 129.401 171.67 129.245 171.237C128.793 169.904 128.206 168.627 127.8 167.279C127.595 166.605 127.409 165.927 127.246 165.241C127.168 164.922 127.099 164.603 127.032 164.281C126.994 164.096 126.958 163.913 126.924 163.73C126.885 163.534 126.861 163.55 127.029 163.507C127.099 163.484 127.158 163.436 127.194 163.372C127.231 163.308 127.243 163.233 127.228 163.161V163.158Z" fill="white"/>
<path d="M119.411 163.158C119.391 163.092 119.357 163.03 119.312 162.978C119.266 162.925 119.209 162.884 119.146 162.855C119.082 162.826 119.014 162.812 118.944 162.812C118.875 162.813 118.806 162.828 118.743 162.857C118.583 162.927 118.452 163.048 118.371 163.202C118.289 163.355 118.262 163.532 118.294 163.703C118.4 164.596 118.578 165.479 118.827 166.343C119.047 167.246 119.312 168.107 119.616 168.971C119.894 169.856 120.251 170.715 120.681 171.538C120.904 171.932 121.584 171.67 121.428 171.237C120.976 169.904 120.389 168.627 119.983 167.279C119.778 166.605 119.592 165.927 119.429 165.241C119.351 164.922 119.282 164.603 119.216 164.281C119.177 164.096 119.141 163.913 119.107 163.73C119.068 163.534 119.044 163.55 119.213 163.507C119.282 163.484 119.341 163.436 119.377 163.372C119.414 163.308 119.426 163.233 119.411 163.161V163.158Z" fill="white"/>
<path d="M111.594 163.158C111.574 163.092 111.54 163.03 111.495 162.978C111.449 162.925 111.392 162.884 111.329 162.855C111.265 162.826 111.197 162.812 111.127 162.812C111.058 162.813 110.989 162.828 110.926 162.857C110.766 162.927 110.635 163.048 110.554 163.202C110.472 163.355 110.445 163.532 110.477 163.703C110.586 164.596 110.764 165.478 111.01 166.343C111.23 167.246 111.498 168.107 111.799 168.971C112.077 169.856 112.434 170.715 112.864 171.538C113.087 171.932 113.767 171.67 113.611 171.237C113.159 169.904 112.572 168.627 112.166 167.279C111.961 166.605 111.775 165.927 111.612 165.241C111.534 164.922 111.465 164.603 111.399 164.281C111.36 164.096 111.324 163.913 111.29 163.73C111.254 163.534 111.23 163.55 111.396 163.507C111.465 163.484 111.524 163.436 111.56 163.372C111.597 163.308 111.609 163.233 111.594 163.161V163.158Z" fill="white"/>
<path d="M222.823 84.7658C223.039 95.4513 222.702 106.155 222.269 116.831C221.835 127.46 221.303 138.085 220.89 148.713C220.656 154.733 220.484 160.753 220.433 166.773C220.434 166.822 220.447 166.869 220.471 166.911C220.496 166.952 220.53 166.987 220.572 167.011C220.614 167.035 220.662 167.048 220.71 167.049C220.758 167.049 220.806 167.037 220.848 167.014C221.224 166.827 221.546 167.348 221.571 167.664C221.545 168.045 221.39 168.405 221.131 168.685C220.716 169.25 220.297 169.759 220.09 170.445C219.9 171.078 219.867 171.747 219.994 172.395C220.122 173.043 220.406 173.65 220.821 174.163C221.008 174.392 221.423 174.081 221.233 173.862C220.714 173.186 220.447 172.35 220.478 171.499C220.511 170.545 220.947 169.849 221.507 169.115C221.926 168.567 222.308 167.911 222.01 167.21C221.76 166.632 221.173 166.252 220.568 166.55L220.987 166.788C221.08 156.091 221.565 145.417 222.106 134.72C222.645 124.097 223.208 113.472 223.38 102.838C223.476 96.8178 223.429 90.7978 223.238 84.7778C223.238 84.7227 223.216 84.6699 223.177 84.6309C223.138 84.592 223.085 84.5701 223.03 84.5701C222.975 84.5701 222.923 84.592 222.884 84.6309C222.845 84.6699 222.823 84.7227 222.823 84.7778V84.7658Z" fill="white"/>
<path d="M220.818 175.761C220.723 176.344 220.748 176.94 220.89 177.513C220.91 177.564 220.948 177.606 220.997 177.63C221.045 177.655 221.102 177.66 221.154 177.646C221.207 177.631 221.252 177.597 221.281 177.551C221.31 177.505 221.321 177.449 221.312 177.395C221.174 176.898 221.139 176.378 221.206 175.866C221.219 175.815 221.212 175.76 221.186 175.714C221.159 175.668 221.116 175.634 221.065 175.62C221.013 175.606 220.959 175.613 220.912 175.639C220.866 175.666 220.832 175.71 220.818 175.761V175.761Z" fill="white"/>
<path d="M210.154 68.3342C210.572 69.7128 211.015 71.0853 211.454 72.4579C211.547 72.7589 212.008 72.6234 211.911 72.3315C211.463 70.9619 211.008 69.5893 210.545 68.2258C210.461 67.982 210.078 68.0813 210.154 68.3342V68.3342Z" fill="white"/>
<path d="M215.141 73.6378C215.202 73.6311 215.257 73.6024 215.298 73.5571C215.338 73.5118 215.361 73.4532 215.361 73.3925C215.361 73.3317 215.338 73.2731 215.298 73.2279C215.257 73.1826 215.202 73.1539 215.141 73.1472C215.081 73.1539 215.025 73.1826 214.985 73.2279C214.944 73.2731 214.922 73.3317 214.922 73.3925C214.922 73.4532 214.944 73.5118 214.985 73.5571C215.025 73.6024 215.081 73.6311 215.141 73.6378Z" fill="white"/>
<path d="M233.442 150.396C234.764 151.469 236.016 152.626 237.189 153.86C240.658 157.64 243.14 162.219 244.413 167.189C244.893 169.063 245.204 170.977 245.344 172.908C245.365 173.209 245.84 173.209 245.828 172.908C245.551 165.97 242.601 159.122 237.972 153.975C236.697 152.511 235.259 151.198 233.686 150.062C233.49 149.926 233.246 150.239 233.43 150.393L233.442 150.396Z" fill="white"/>
<path d="M245.687 175.74C245.88 175.903 246.106 176.022 246.349 176.088C246.593 176.154 246.848 176.167 247.097 176.124C247.345 176.082 247.582 175.986 247.79 175.842C247.997 175.699 248.171 175.512 248.299 175.295C248.317 175.264 248.329 175.23 248.334 175.196C248.338 175.161 248.336 175.125 248.327 175.091C248.318 175.057 248.303 175.025 248.281 174.997C248.26 174.969 248.233 174.945 248.203 174.927C248.173 174.91 248.139 174.898 248.104 174.893C248.069 174.888 248.034 174.89 247.999 174.899C247.965 174.908 247.933 174.924 247.905 174.945C247.877 174.967 247.854 174.993 247.836 175.024C247.801 175.099 247.754 175.168 247.697 175.228C247.644 175.291 247.582 175.345 247.514 175.391C247.364 175.5 247.189 175.57 247.005 175.596H246.939H246.758H246.614H246.581H246.514C246.349 175.56 246.195 175.482 246.069 175.37C246.017 175.321 245.949 175.294 245.878 175.294C245.807 175.294 245.739 175.321 245.687 175.37C245.637 175.421 245.609 175.49 245.609 175.561C245.609 175.632 245.637 175.701 245.687 175.752V175.74Z" fill="white"/>
<path d="M85.7744 106.185C88.1824 106.23 90.6175 106.242 93.0375 106.257C93.1072 106.25 93.1716 106.217 93.2185 106.165C93.2654 106.113 93.2913 106.046 93.2913 105.976C93.2913 105.906 93.2654 105.838 93.2185 105.786C93.1716 105.734 93.1072 105.701 93.0375 105.694C90.6295 105.694 88.1944 105.721 85.7744 105.767C85.7232 105.773 85.6761 105.797 85.6419 105.836C85.6077 105.874 85.5888 105.924 85.5888 105.976C85.5888 106.027 85.6077 106.077 85.6419 106.116C85.6761 106.154 85.7232 106.179 85.7744 106.185V106.185Z" fill="#FE9102"/>
<path d="M85.7744 109.487C88.1824 109.532 90.6175 109.547 93.0375 109.559C93.1118 109.559 93.183 109.53 93.2355 109.477C93.288 109.425 93.3175 109.353 93.3175 109.279C93.3175 109.205 93.288 109.134 93.2355 109.081C93.183 109.029 93.1118 108.999 93.0375 108.999C90.6295 108.999 88.1944 109.023 85.7744 109.072C85.7193 109.072 85.6665 109.093 85.6275 109.132C85.5886 109.171 85.5667 109.224 85.5667 109.279C85.5667 109.334 85.5886 109.387 85.6275 109.426C85.6665 109.465 85.7193 109.487 85.7744 109.487V109.487Z" fill="#FE9102"/>
<path d="M85.7744 112.789C88.1824 112.837 90.6175 112.849 93.0375 112.861C93.1118 112.861 93.183 112.832 93.2355 112.779C93.288 112.727 93.3175 112.655 93.3175 112.581C93.3175 112.507 93.288 112.436 93.2355 112.383C93.183 112.331 93.1118 112.301 93.0375 112.301C90.6295 112.301 88.1944 112.328 85.7744 112.373C85.7193 112.373 85.6665 112.395 85.6275 112.434C85.5886 112.473 85.5667 112.526 85.5667 112.581C85.5667 112.636 85.5886 112.689 85.6275 112.728C85.6665 112.767 85.7193 112.789 85.7744 112.789V112.789Z" fill="#FE9102"/>
<path d="M41.1813 51.4571C46.378 52.1392 51.6431 52.1149 56.8333 51.3849C56.872 51.3742 56.9079 51.3548 56.9379 51.3281C56.968 51.3014 56.9915 51.2681 57.0067 51.2309C57.0218 51.1936 57.0281 51.1534 57.0252 51.1132C57.0223 51.0731 57.0102 51.0342 56.9898 50.9996C55.9333 49.609 55.9363 47.4809 57.1373 46.1685C57.7311 45.5507 58.5151 45.1499 59.3637 45.0304C60.2123 44.9109 61.0764 45.0795 61.8178 45.5093C62.0255 45.6327 62.3656 45.422 62.2603 45.1692C60.9088 41.9003 59.7801 38.2462 60.4994 34.6794C61.1014 31.7657 62.9074 28.9604 65.8512 28.0303C69.0478 27.0039 72.5756 28.1326 75.4832 29.5353C78.1785 30.864 80.6227 32.6504 82.7072 34.8148C85.0806 37.2515 86.9459 40.1359 88.1945 43.3C88.2273 43.3852 88.2906 43.455 88.3721 43.4961C88.4536 43.5371 88.5475 43.5463 88.6354 43.5218C88.7233 43.4974 88.799 43.4411 88.8477 43.3639C88.8964 43.2868 88.9146 43.1942 88.8988 43.1043C88.5557 40.9973 88.2125 38.0355 90.5754 36.9338C91.5656 36.4733 92.5198 36.8435 93.2031 37.6382C93.9887 38.5412 94.5365 39.7211 95.1476 40.7565L97.5556 44.8291C97.5949 44.8909 97.6511 44.9403 97.7175 44.9713C97.7839 45.0023 97.8578 45.0138 97.9305 45.0043C98.0031 44.9948 98.0716 44.9648 98.1278 44.9178C98.184 44.8707 98.2257 44.8086 98.2479 44.7388C98.5305 43.8558 99.0641 43.0742 99.7835 42.4894C100.503 41.9046 101.377 41.542 102.299 41.4458C103.245 41.3889 104.188 41.6067 105.013 42.0729C105.838 42.5391 106.51 43.2339 106.95 44.0736C107.136 44.4227 107.627 44.1157 107.47 43.7726C107.007 42.7855 106.253 41.963 105.311 41.4141C104.368 40.8652 103.281 40.6159 102.194 40.6994C101.126 40.8158 100.115 41.2411 99.2844 41.9232C98.4542 42.6054 97.8408 43.5148 97.5194 44.5401L98.2117 44.4498L95.7646 40.3141C95.3673 39.6459 94.979 38.9746 94.5787 38.3124C94.2823 37.7886 93.9224 37.3033 93.5071 36.8676C93.1215 36.461 92.6227 36.1796 92.0752 36.0599C91.5278 35.9402 90.957 35.9878 90.4369 36.1964C89.9127 36.418 89.442 36.7491 89.0563 37.1675C88.6705 37.5859 88.3787 38.082 88.2005 38.6225C87.6858 40.1275 87.9476 41.7679 88.2005 43.303L88.9048 43.1074C86.5497 37.1432 82.1321 32.2225 76.4555 29.2403C73.5026 27.7022 70.0231 26.4771 66.6609 27.1182C63.4492 27.7202 61.1616 30.2787 60.2015 33.3098C58.9312 37.3221 60.1322 41.5783 61.7065 45.3227L62.1489 44.9826C61.291 44.4608 60.2766 44.2581 59.284 44.4103C58.2915 44.5625 57.3844 45.0598 56.7222 45.8147C56.06 46.5696 55.6852 47.5338 55.6637 48.5377C55.6422 49.5416 55.9753 50.521 56.6045 51.3036L56.7219 50.8671C51.5799 51.6469 46.3541 51.7037 41.1963 51.0357C40.9344 51.0026 40.9375 51.4119 41.1963 51.4451L41.1813 51.4571Z" fill="#FE9102"/>
<path d="M27.4557 129.085C31.3118 128.755 35.1956 129.005 38.9779 129.825C39.2398 129.883 39.4415 129.494 39.1706 129.365C37.7739 128.712 38.0689 126.692 38.9689 125.753C40.4739 124.179 43.1077 125.13 44.6879 126.054C44.9257 126.192 45.2658 125.9 45.0882 125.651C42.4394 121.936 44.0709 116.771 46.3645 113.31C46.9297 112.383 47.686 111.588 48.5828 110.977C49.059 110.674 49.5985 110.484 50.1596 110.423C50.7207 110.362 51.2884 110.431 51.8186 110.625C52.9134 111.043 53.9376 111.627 54.8557 112.355C55.7543 113.02 56.586 113.771 57.3389 114.598C59.0207 116.428 60.2921 118.597 61.0683 120.958C61.0936 121.042 61.1501 121.113 61.2262 121.157C61.3024 121.201 61.3924 121.213 61.4777 121.193C62.3536 121.012 62.6606 120.124 63.076 119.447C63.177 119.231 63.3336 119.045 63.5298 118.909C63.726 118.773 63.9548 118.692 64.1927 118.673C64.7024 118.703 65.189 118.896 65.5803 119.224C67.0703 120.317 68.0154 123.158 70.312 122.604C70.6461 122.523 70.4956 122.057 70.1706 122.099C69.09 122.249 68.2442 121.28 67.6392 120.522C66.9619 119.67 66.3599 118.785 65.3455 118.297C64.4726 117.876 63.4643 117.891 62.8021 118.679C62.3355 119.236 62.0947 120.386 61.2971 120.549L61.7064 120.783C60.9716 118.522 59.8007 116.427 58.26 114.616C56.7249 112.81 54.7503 111.136 52.5591 110.182C51.4393 109.695 50.2112 109.517 49.0494 109.975C48.0031 110.432 47.0972 111.159 46.4247 112.082C44.9623 113.98 43.9348 116.177 43.4147 118.517C42.8578 121.036 43.0234 123.766 44.5705 125.915L44.9708 125.512C43.1317 124.462 40.0826 123.516 38.4542 125.464C37.4218 126.698 37.2201 129.013 38.9087 129.786L39.1013 129.329C35.2714 128.526 31.3426 128.304 27.4466 128.67C27.1908 128.694 27.1848 129.097 27.4466 129.073L27.4557 129.085Z" fill="#FE9102"/>
<path d="M195.781 35.7961C199.14 35.781 202.502 35.7329 205.861 35.7569C205.915 35.756 205.966 35.7395 206.011 35.7095C206.055 35.6795 206.089 35.6374 206.109 35.5882C206.13 35.539 206.135 35.4849 206.126 35.4325C206.116 35.3802 206.091 35.3318 206.054 35.2934C204.943 34.276 205.47 32.4851 206.484 31.6001C207.92 30.348 210.193 30.7483 211.86 31.1817C211.907 31.1936 211.955 31.1948 212.002 31.1852C212.048 31.1757 212.092 31.1557 212.13 31.1268C212.168 31.0978 212.199 31.0606 212.221 31.018C212.242 30.9754 212.254 30.9285 212.255 30.8807C212.288 27.654 213.125 24.0149 216.192 22.3504C216.82 21.9891 217.522 21.7732 218.245 21.7185C218.968 21.6638 219.694 21.7717 220.37 22.0343C221.607 22.5521 222.522 23.5935 223.202 24.7193C223.981 26.0936 224.587 27.5584 225.008 29.0807C225.113 29.4269 225.685 29.3818 225.661 28.9935C225.55 27.353 227.744 26.7992 228.972 27.3109C230.823 28.0784 231.353 30.5737 231.738 32.3075C231.754 32.363 231.784 32.4134 231.826 32.4538C231.867 32.4942 231.918 32.5232 231.973 32.5381C232.029 32.5529 232.088 32.5531 232.144 32.5385C232.2 32.524 232.251 32.4952 232.292 32.455C234.324 30.348 237.984 30.4322 239.986 32.5272C240.287 32.8282 240.714 32.3797 240.44 32.0757C238.258 29.6677 234.068 29.6677 231.823 31.9854L232.376 32.1329C231.985 30.375 231.501 28.3975 230.038 27.2055C229.464 26.7485 228.759 26.4876 228.026 26.461C227.293 26.4345 226.57 26.6437 225.965 27.058C225.648 27.2674 225.39 27.5561 225.219 27.8956C225.047 28.2351 224.967 28.6136 224.987 28.9935L225.64 28.9032C224.815 26.2152 223.669 22.9404 220.972 21.5949C217.859 20.0387 214.371 22.0283 212.887 24.8878C211.93 26.7269 211.644 28.8309 211.626 30.8807L212.02 30.5797C210.069 30.0801 207.505 29.7249 205.919 31.3021C204.799 32.4219 204.329 34.5289 205.663 35.6727L205.855 35.2121C202.496 35.3024 199.134 35.3265 195.775 35.3807C195.724 35.3868 195.678 35.4111 195.644 35.4491C195.611 35.4871 195.592 35.5361 195.592 35.5869C195.592 35.6376 195.611 35.6866 195.644 35.7246C195.678 35.7626 195.724 35.787 195.775 35.7931L195.781 35.7961Z" fill="#FE9102"/>
<path d="M246.238 117.755H247.442C247.506 117.755 247.568 117.73 247.614 117.684C247.66 117.638 247.685 117.576 247.685 117.512C247.685 117.447 247.66 117.385 247.614 117.339C247.568 117.293 247.506 117.268 247.442 117.268H246.238C246.172 117.268 246.109 117.294 246.063 117.34C246.017 117.386 245.991 117.449 245.991 117.515C245.991 117.58 246.017 117.643 246.063 117.689C246.109 117.735 246.172 117.761 246.238 117.761V117.755Z" fill="#FE9102"/>
<path d="M3.22817 71.3231L44.4471 71.3502C58.1145 71.3502 71.7839 71.3502 85.4553 71.3502C93.167 71.3502 100.878 71.3442 108.587 71.3321C108.65 71.3253 108.708 71.2956 108.75 71.2486C108.792 71.2017 108.815 71.1408 108.815 71.0778C108.815 71.0147 108.792 70.9539 108.75 70.9069C108.708 70.86 108.65 70.8303 108.587 70.8234C94.8465 70.7873 81.1089 70.8054 67.3683 70.8084C53.6988 70.8084 40.0304 70.8144 26.363 70.8264H3.22817C3.1701 70.833 3.11648 70.8607 3.07754 70.9043C3.03861 70.9479 3.01709 71.0043 3.01709 71.0627C3.01709 71.1212 3.03861 71.1776 3.07754 71.2211C3.11648 71.2647 3.1701 71.2924 3.22817 71.299V71.3231Z" fill="#FE9102"/>
<path d="M40.7719 83.4022L68.1629 83.4353C70.7394 83.4353 73.316 83.4654 75.8926 83.4353C75.9529 83.4286 76.0087 83.3999 76.0493 83.3546C76.0898 83.3094 76.1122 83.2508 76.1122 83.19C76.1122 83.1293 76.0898 83.0706 76.0493 83.0254C76.0087 82.9801 75.9529 82.9514 75.8926 82.9447C71.3174 82.9056 66.7361 82.9447 62.1609 82.9447L48.5016 82.9598H40.7749C40.7245 82.9659 40.6781 82.9902 40.6444 83.0282C40.6108 83.0662 40.5922 83.1152 40.5922 83.1659C40.5922 83.2167 40.6108 83.2657 40.6444 83.3037C40.6781 83.3417 40.7245 83.366 40.7749 83.3721L40.7719 83.4022Z" fill="#FE9102"/>
<path d="M57.1764 92.2215L59.9998 95.0509C60.0397 95.0908 60.0938 95.1133 60.1503 95.1133C60.2067 95.1133 60.2609 95.0908 60.3008 95.0509C60.3407 95.011 60.3631 94.9569 60.3631 94.9004C60.3631 94.844 60.3407 94.7898 60.3008 94.7499L57.4714 91.9265C57.4315 91.8866 57.3773 91.8642 57.3209 91.8642C57.2644 91.8642 57.2103 91.8866 57.1704 91.9265C57.1305 91.9665 57.108 92.0206 57.108 92.077C57.108 92.1335 57.1305 92.1876 57.1704 92.2275L57.1764 92.2215Z" fill="#FE9102"/>
<path d="M231.076 54.5153C231.878 59.8299 232.267 65.1988 232.238 70.5736C232.238 71.3101 232.22 72.0455 232.184 72.7799C232.154 73.5595 232.06 74.3512 232.081 75.1308C232.081 75.4709 232.644 75.5792 232.683 75.215C232.838 73.8704 232.902 72.5168 232.876 71.1636C232.9 69.8151 232.897 68.4546 232.852 67.1151C232.759 64.37 232.551 61.6249 232.181 58.9008C231.985 57.3958 231.75 55.8908 231.446 54.4069C231.395 54.1511 231.028 54.2684 231.061 54.5153H231.076Z" fill="white"/>
</svg>
