<svg width="16" height="20" viewBox="0 0 16 20" fill="none" xmlns="http://www.w3.org/2000/svg">
<path d="M2.3 0.950012C1.3 0.950012 0.5 1.75001 0.5 2.75001V13.55C0.8 13.15 1.3 12.95 1.8 12.95H2.1V9.75001C2.1 10.15 2.5 10.45 2.9 10.35C3 10.35 3.1 10.25 3.2 10.25L5.5 8.45001H6.9L6 12.05C6 12.15 6 12.25 6 12.45C6 13.05 6.4 13.65 6.9 13.85L9.5 15.25L9.9 18.35C9.9 18.75 10.3 19.05 10.7 19.05C11.1 19.05 11.4 18.65 11.4 18.25L10.9 14.75C10.9 14.55 10.8 14.45 10.6 14.25L8.9 12.65L9.5 10.25L10.5 11.65C10.6 11.85 10.9 11.95 11.1 11.95H13.9V18.25C13.9 18.65 14.2 19.05 14.7 19.05C15.2 19.05 15.5 18.75 15.5 18.25V2.75001C15.5 1.75001 14.7 0.950012 13.7 0.950012H2.3ZM2.3 2.45001H13.8C13.9 2.45001 14.1 2.55001 14.1 2.75001V10.45H11.7L9.8 7.75001C9.8 7.75001 9.8 7.75001 9.8 7.65001C9.5 7.25001 9 6.95001 8.5 6.95001H8.4H8.3H5.3C5.1 6.95001 5 7.05001 4.9 7.05001L2.3 8.95001C2.1 9.15001 2 9.25001 2 9.45001V2.75001C2 2.55001 2.1 2.45001 2.3 2.45001ZM11 3.95001C10.2 3.95001 9.5 4.65001 9.5 5.45001C9.5 6.25001 10.2 6.95001 11 6.95001C11.8 6.95001 12.5 6.25001 12.5 5.45001C12.5 4.65001 11.8 3.95001 11 3.95001ZM5.2 13.45L4.5 13.95H1.8C1.4 13.95 1 14.25 1 14.75C1 15.25 1.3 15.55 1.8 15.55H4.8C5 15.55 5.1 15.45 5.2 15.45L6.6 14.95H6.5C5.9 14.45 5.4 13.95 5.2 13.45ZM0.5 15.95V18.25C0.5 18.65 0.8 18.95 1.3 18.95C1.8 18.95 2.1 18.65 2.1 18.15V16.35H1.8C1.3 16.45 0.8 16.25 0.5 15.95Z" fill="#212629"/>
</svg>
