<svg width="24" height="16" viewBox="0 0 24 16" fill="none" xmlns="http://www.w3.org/2000/svg">
<path d="M4.2502 0.5C2.4502 0.5 0.950195 2 0.950195 3.8V12.3C0.950195 14 2.4502 15.5 4.2502 15.5H19.7502C21.5502 15.5 23.0502 14 23.0502 12.2V3.8C22.9502 2 21.4502 0.5 19.7502 0.5H4.2502ZM4.2502 2H19.7502C20.7502 2 21.5502 2.8 21.5502 3.8V12.3C21.5502 13.3 20.7502 14.1 19.7502 14.1H4.2502C3.2502 14.1 2.4502 13.3 2.4502 12.3V3.8C2.4502 2.8 3.2502 2 4.2502 2ZM14.0502 5.3C12.5502 5.3 11.8502 6 11.8502 6.9C11.8502 8.6 13.7502 8.3 13.7502 9.2C13.7502 9.3 13.6502 9.7 12.8502 9.7C12.0502 9.7 11.5502 9.4 11.5502 9.4L11.3502 10.5C11.3502 10.5 11.8502 10.8 12.8502 10.8C13.8502 10.8 15.2502 10 15.2502 8.9C15.2502 7.6 13.3502 7.5 13.3502 6.9C13.3502 6.6 13.5502 6.4 14.2502 6.4C14.6502 6.4 15.2502 6.7 15.2502 6.7L15.3502 5.5C15.3502 5.5 14.6502 5.3 14.0502 5.3ZM9.2502 5.4H7.7502L6.5502 9.1C6.5502 9.1 6.4502 8.8 6.4502 8.6C5.7502 6.9 4.5502 6.3 4.5502 6.3L5.6502 10.5H7.1502L9.2502 5.4ZM9.85019 5.4L9.0502 10.6H10.4502L11.2502 5.4H9.85019ZM17.3502 5.4L15.0502 10.6H16.4502L16.7502 9.9H18.4502L18.5502 10.6H19.9502L18.8502 5.4H17.3502ZM2.9502 5.4C2.9502 5.4 5.6502 6.2 6.3502 8.3L5.8502 5.9C5.8502 5.9 5.6502 5.4 5.0502 5.4H2.9502ZM17.9502 6.9L18.3502 8.9H17.1502L17.9502 6.9Z" fill="white"/>
</svg>
