<svg width="22" height="20" viewBox="0 0 22 20" fill="none" xmlns="http://www.w3.org/2000/svg">
<path d="M1.45 0.799805C1.05 0.799805 0.75 1.0998 0.75 1.5998V10.5998C0.75 12.0998 1.95 13.2998 3.45 13.2998H4.15V16.9998C4.15 18.1998 5.15 19.1998 6.35 19.1998H12.85C14.05 19.1998 15.05 18.1998 15.05 16.9998V13.2998H15.75C17.25 13.2998 18.45 12.0998 18.45 10.5998V1.5998C18.75 1.0998 18.45 0.799805 18.05 0.799805C17.65 0.799805 17.35 1.0998 17.35 1.5998V10.5998C17.35 11.2998 16.75 11.7998 16.15 11.7998H15.45V9.7998C15.85 9.6998 16.05 9.1998 15.95 8.7998C15.85 8.4998 15.55 8.2998 15.25 8.2998H4.55C4.05 8.2998 3.75 8.5998 3.75 9.0998C3.75 9.39981 3.95 9.6998 4.25 9.7998V11.7998H3.55C2.85 11.7998 2.35 11.1998 2.35 10.5998V1.5998C2.25 1.0998 1.95 0.799805 1.45 0.799805C1.55 0.799805 1.45 0.799805 1.45 0.799805ZM20.45 0.799805C20.05 0.799805 19.75 1.0998 19.75 1.5998V11.0998C19.75 11.4998 20.05 11.8998 20.45 11.8998C20.85 11.8998 21.25 11.5998 21.25 11.1998V1.5998C21.25 1.0998 20.95 0.799805 20.45 0.799805C20.55 0.799805 20.45 0.799805 20.45 0.799805ZM5.75 0.799805C5.15 0.799805 4.75 1.2998 4.75 1.7998C4.75 2.2998 5.15 2.7998 5.75 2.7998C6.35 2.7998 6.75 2.3998 6.75 1.7998C6.75 1.1998 6.35 0.799805 5.75 0.799805ZM9.75 0.799805C9.15 0.799805 8.75 1.2998 8.75 1.7998C8.75 2.2998 9.15 2.7998 9.75 2.7998C10.35 2.7998 10.75 2.3998 10.75 1.7998C10.75 1.1998 10.35 0.799805 9.75 0.799805ZM13.75 0.799805C13.15 0.799805 12.75 1.1998 12.75 1.7998C12.75 2.3998 13.15 2.7998 13.75 2.7998C14.35 2.7998 14.75 2.3998 14.75 1.7998C14.75 1.1998 14.35 0.799805 13.75 0.799805ZM5.75 4.2998C5.15 4.2998 4.75 4.6998 4.75 5.2998C4.75 5.8998 5.15 6.2998 5.75 6.2998C6.35 6.2998 6.75 5.8998 6.75 5.2998C6.75 4.6998 6.35 4.2998 5.75 4.2998ZM9.75 4.2998C9.15 4.2998 8.75 4.6998 8.75 5.2998C8.75 5.8998 9.15 6.2998 9.75 6.2998C10.35 6.2998 10.75 5.8998 10.75 5.2998C10.75 4.6998 10.35 4.2998 9.75 4.2998ZM13.75 4.2998C13.15 4.2998 12.75 4.6998 12.75 5.2998C12.75 5.8998 13.15 6.2998 13.75 6.2998C14.35 6.2998 14.75 5.8998 14.75 5.2998C14.75 4.6998 14.35 4.2998 13.75 4.2998ZM5.75 9.7998H10.25V17.7998H6.55C6.05 17.7998 5.75 17.4998 5.75 17.0998V12.6998C5.75 12.5998 5.75 12.4998 5.75 12.4998V9.7998ZM12.25 9.7998H13.75V12.3998C13.75 12.4998 13.75 12.5998 13.75 12.5998V16.9998C13.75 17.3998 13.45 17.6998 13.05 17.6998H12.35V9.7998H12.25Z" fill="white"/>
</svg>
