<svg width="24" height="16" viewBox="0 0 24 16" fill="none" xmlns="http://www.w3.org/2000/svg">
<path d="M16.1999 0.700195C14.5999 0.700195 13.0999 1.2002 11.8999 2.1002C10.6999 1.2002 9.1999 0.700195 7.6999 0.700195C3.6999 0.700195 0.399902 4.0002 0.399902 8.0002C0.399902 12.0002 3.6999 15.3002 7.6999 15.3002C9.2999 15.3002 10.7999 14.8002 11.9999 13.9002C13.1999 14.8002 14.6999 15.3002 16.2999 15.3002C20.2999 15.3002 23.5999 12.0002 23.5999 8.0002C23.5999 4.0002 20.0999 0.700195 16.1999 0.700195ZM11.8999 11.8002C10.9999 10.8002 10.3999 9.4002 10.3999 7.9002C10.3999 6.4002 10.9999 5.1002 11.8999 4.0002C12.7999 5.0002 13.3999 6.4002 13.3999 7.9002C13.3999 9.4002 12.7999 10.8002 11.8999 11.8002ZM16.1999 13.7002C15.0999 13.7002 13.9999 13.4002 13.0999 12.8002C14.2999 11.5002 14.9999 9.8002 14.9999 8.0002C14.9999 6.2002 14.2999 4.5002 13.0999 3.2002C13.9999 2.6002 15.0999 2.3002 16.1999 2.3002C19.3999 2.3002 21.9999 4.9002 21.9999 8.1002C21.9999 11.3002 19.2999 13.7002 16.1999 13.7002Z" fill="white"/>
</svg>
